<svg xmlns="http://www.w3.org/2000/svg" width="400" height="82" viewBox="0 0 400 82" class="editor-view__logo-preview" data-v-8d8ae3dd="" data-v-75dca0b5=""><svg id="mark" viewBox="0 0 300 300" width="82" height="82" style="fill: rgb(0, 0, 0);" x="0" y="0" data-v-8d8ae3dd=""><rect x="0" y="0" width="100%" height="100%" fill="none" data-v-8d8ae3dd=""></rect><g data-v-8d8ae3dd=""><g xmlns="http://www.w3.org/2000/svg"><path d="M273.5,150c0.1-0.1-91.1-91.8-91.1-91.8c-2.2-2.2-1.5-5.8,1.2-7.1c18.1-8.9,40.4-6.3,55.7,8.3   c10.1,9.7,15.2,22.8,15.1,35.7c0,2.4,1,4.7,2.7,6.4l23.8,23.8c2.3,2.3,6.3,1.4,7.3-1.6c10.7-30.8,3.8-66.4-20.8-91   c-32-32-82.9-34-117.3-6.1c-0.1-0.1-91.8,91.1-91.8,91.1c-2.2,2.2-5.8,1.5-7.1-1.2c-8.9-18.1-6.3-40.4,8.3-55.7   c9.7-10.1,22.8-15.2,35.7-15.1c2.4,0,4.7-1,6.4-2.7l23.8-23.8c2.3-2.3,1.4-6.3-1.6-7.3C93,1.2,57.4,8.1,32.8,32.7   c-32,32-34,82.9-6.1,117.3c-0.1,0.1,91.1,91.8,91.1,91.8c2.2,2.2,1.5,5.8-1.2,7.1c-18.1,8.9-40.4,6.3-55.7-8.3   c-10.1-9.7-15.2-22.8-15.1-35.7c0-2.4-1-4.7-2.7-6.4l-23.8-23.8c-2.3-2.3-6.3-1.4-7.3,1.6c-10.7,30.8-3.8,66.4,20.8,91   c32,32,82.9,34,117.3,6.1c0.1,0.1,91.8-91.1,91.8-91.1c2.2-2.2,5.8-1.5,7.1,1.2c8.9,18.1,6.3,40.4-8.3,55.7   c-9.7,10.1-22.8,15.2-35.7,15.1c-2.4,0-4.7,1-6.4,2.7l-23.8,23.8c-2.3,2.3-1.4,6.3,1.6,7.3c30.8,10.7,66.4,3.8,91-20.8   C299.4,235.3,301.4,184.4,273.5,150z M232.2,167.4c-13.4-4.5-29-1.4-39.7,9.3c0,0-40.6,40.6-56.4,56.4c-1.2,1.2-3.3,0-2.8-1.7   c4-13.3,0.8-28.2-9.6-38.7c0,0-40.9-40.9-57.5-57.6c-1.2-1.2,0.1-3.3,1.7-2.8c13.4,4.5,29,1.4,39.7-9.3c0,0,40.4-40.4,57.9-57.8   c1.2-1.2,3.4,0.1,2.8,1.7c-5,13.7-2,29.6,9.1,40.7c0,0,40.2,40.2,56.7,56.8C235.2,165.9,233.9,168,232.2,167.4z"></path></g></g></svg><svg id="name" viewBox="0 0 302.32421875 44.3154296875" width="302" height="44.26790490341753" style="fill: rgb(255, 204, 0);" x="98" y="9.325377469184673" data-v-8d8ae3dd=""><rect x="0" y="0" width="100%" height="100%" fill="none" data-v-8d8ae3dd=""></rect><g data-v-8d8ae3dd=""><path xmlns="http://www.w3.org/2000/svg" d="M4.99 10.20L11.50 10.20L11.50 35.83Q11.50 39.85 9.37 42.08Q7.23 44.32 3.21 44.32L3.21 44.32Q1.53 44.32 0 43.93L0 43.93L0 38.79Q1.17 38.99 2.04 38.99L2.04 38.99Q4.99 38.99 4.99 35.87L4.99 35.87L4.99 10.20ZM4.47 3.91L4.47 3.91Q4.47 2.45 5.45 1.50Q6.42 0.56 8.11 0.56Q9.79 0.56 10.77 1.50Q11.75 2.45 11.75 3.91L11.75 3.91Q11.75 5.39 10.75 6.33Q9.75 7.28 8.11 7.28Q6.47 7.28 5.47 6.33Q4.47 5.39 4.47 3.91ZM15.57 22.42L15.57 22.12Q15.57 18.51 16.96 15.68Q18.35 12.85 20.97 11.30Q23.58 9.75 27.04 9.75L27.04 9.75Q31.96 9.75 35.07 12.76Q38.18 15.77 38.54 20.93L38.54 20.93L38.59 22.60Q38.59 28.19 35.47 31.57Q32.34 34.95 27.09 34.95Q21.83 34.95 18.70 31.58Q15.57 28.21 15.57 22.42L15.57 22.42ZM22.06 22.60L22.06 22.60Q22.06 26.05 23.36 27.89Q24.66 29.72 27.09 29.72L27.09 29.72Q29.45 29.72 30.77 27.91Q32.10 26.10 32.10 22.12L32.10 22.12Q32.10 18.73 30.77 16.87Q29.45 15.00 27.04 15.00L27.04 15.00Q24.66 15.00 23.36 16.86Q22.06 18.71 22.06 22.60ZM55.75 27.78L55.75 27.78Q55.75 26.59 54.57 25.91Q53.39 25.22 50.78 24.68L50.78 24.68Q42.11 22.87 42.11 17.32L42.11 17.32Q42.11 14.08 44.80 11.92Q47.48 9.75 51.82 9.75L51.82 9.75Q56.44 9.75 59.22 11.93Q61.99 14.11 61.99 17.59L61.99 17.59L55.50 17.59Q55.50 16.19 54.60 15.28Q53.70 14.38 51.79 14.38L51.79 14.38Q50.16 14.38 49.26 15.12Q48.36 15.86 48.36 17.00L48.36 17.00Q48.36 18.08 49.38 18.74Q50.40 19.41 52.83 19.89Q55.25 20.37 56.92 20.98L56.92 20.98Q62.06 22.87 62.06 27.51L62.06 27.51Q62.06 30.84 59.21 32.89Q56.35 34.95 51.84 34.95L51.84 34.95Q48.79 34.95 46.42 33.86Q44.05 32.77 42.70 30.87Q41.35 28.97 41.35 26.77L41.35 26.77L47.50 26.77Q47.59 28.50 48.79 29.42Q49.98 30.34 51.97 30.34L51.97 30.34Q53.84 30.34 54.79 29.64Q55.75 28.93 55.75 27.78ZM77.42 34.95L77.42 34.95Q72.08 34.95 68.72 31.67Q65.36 28.39 65.36 22.93L65.36 22.93L65.36 22.30Q65.36 18.64 66.78 15.76Q68.19 12.87 70.79 11.31Q73.38 9.75 76.70 9.75L76.70 9.75Q81.69 9.75 84.55 12.89Q87.42 16.04 87.42 21.81L87.42 21.81L87.42 24.46L71.94 24.46Q72.26 26.84 73.84 28.28Q75.42 29.72 77.85 29.72L77.85 29.72Q81.60 29.72 83.71 27.00L83.71 27.00L86.90 30.57Q85.44 32.64 82.95 33.79Q80.46 34.95 77.42 34.95ZM76.68 15.00L76.68 15.00Q74.75 15.00 73.55 16.31Q72.35 17.61 72.01 20.04L72.01 20.04L81.04 20.04L81.04 19.52Q80.99 17.36 79.87 16.18Q78.75 15.00 76.68 15.00ZM112.98 22.24L112.98 22.57Q112.98 28.19 110.43 31.57Q107.88 34.95 103.54 34.95L103.54 34.95Q99.86 34.95 97.59 32.39L97.59 32.39L97.59 43.84L91.10 43.84L91.10 10.20L97.12 10.20L97.35 12.58Q99.70 9.75 103.50 9.75L103.50 9.75Q107.99 9.75 110.49 13.07Q112.98 16.40 112.98 22.24L112.98 22.24ZM106.49 22.10L106.49 22.10Q106.49 18.71 105.29 16.87Q104.08 15.03 101.79 15.03L101.79 15.03Q98.74 15.03 97.59 17.36L97.59 17.36L97.59 27.31Q98.78 29.72 101.84 29.72L101.84 29.72Q106.49 29.72 106.49 22.10ZM123.33 0L123.33 12.85Q125.92 9.75 129.82 9.75L129.82 9.75Q137.73 9.75 137.84 18.93L137.84 18.93L137.84 34.50L131.35 34.50L131.35 19.11Q131.35 17.03 130.45 16.03Q129.55 15.03 127.47 15.03L127.47 15.03Q124.61 15.03 123.33 17.23L123.33 17.23L123.33 34.50L116.84 34.50L116.84 0L123.33 0ZM169.27 34.50L163.02 24.75L160.69 27.09L160.69 34.50L154.19 34.50L154.19 0L160.69 0L160.69 19.11L161.94 17.50L168.17 10.20L175.96 10.20L167.18 20.33L176.72 34.50L169.27 34.50ZM185.62 10.20L185.62 34.50L179.10 34.50L179.10 10.20L185.62 10.20ZM178.72 3.91L178.72 3.91Q178.72 2.45 179.70 1.50Q180.68 0.56 182.36 0.56L182.36 0.56Q184.02 0.56 185.01 1.50Q186.00 2.45 186.00 3.91L186.00 3.91Q186.00 5.39 185.00 6.33Q184 7.28 182.36 7.28Q180.72 7.28 179.72 6.33Q178.72 5.39 178.72 3.91ZM192.24 4.22L198.73 4.22L198.73 10.20L202.89 10.20L202.89 14.96L198.73 14.96L198.73 27.09Q198.73 28.44 199.25 29.02Q199.77 29.60 201.23 29.60L201.23 29.60Q202.31 29.60 203.14 29.45L203.14 29.45L203.14 34.37Q201.23 34.95 199.21 34.95L199.21 34.95Q192.38 34.95 192.24 28.05L192.24 28.05L192.24 14.96L188.69 14.96L188.69 10.20L192.24 10.20L192.24 4.22ZM212.84 0L212.84 12.85Q215.42 9.75 219.33 9.75L219.33 9.75Q227.24 9.75 227.35 18.93L227.35 18.93L227.35 34.50L220.86 34.50L220.86 19.11Q220.86 17.03 219.96 16.03Q219.06 15.03 216.97 15.03L216.97 15.03Q214.12 15.03 212.84 17.23L212.84 17.23L212.84 34.50L206.35 34.50L206.35 0L212.84 0ZM243.43 34.95L243.43 34.95Q238.09 34.95 234.73 31.67Q231.37 28.39 231.37 22.93L231.37 22.93L231.37 22.30Q231.37 18.64 232.79 15.76Q234.20 12.87 236.79 11.31Q239.39 9.75 242.71 9.75L242.71 9.75Q247.70 9.75 250.56 12.89Q253.43 16.04 253.43 21.81L253.43 21.81L253.43 24.46L237.95 24.46Q238.27 26.84 239.85 28.28Q241.43 29.72 243.86 29.72L243.86 29.72Q247.61 29.72 249.72 27.00L249.72 27.00L252.91 30.57Q251.45 32.64 248.96 33.79Q246.46 34.95 243.43 34.95ZM242.69 15.00L242.69 15.00Q240.76 15.00 239.56 16.31Q238.36 17.61 238.02 20.04L238.02 20.04L247.05 20.04L247.05 19.52Q247.00 17.36 245.88 16.18Q244.76 15.00 242.69 15.00ZM272.18 34.50L265.94 24.75L263.60 27.09L263.60 34.50L257.11 34.50L257.11 0L263.60 0L263.60 19.11L264.86 17.50L271.08 10.20L278.88 10.20L270.09 20.33L279.64 34.50L272.18 34.50ZM302.32 34.50L295.77 34.50Q295.32 33.62 295.11 32.32L295.11 32.32Q292.76 34.95 288.98 34.95L288.98 34.95Q285.41 34.95 283.06 32.88Q280.72 30.82 280.72 27.67L280.72 27.67Q280.72 23.81 283.58 21.74Q286.44 19.68 291.86 19.65L291.86 19.65L294.84 19.65L294.84 18.26Q294.84 16.58 293.98 15.57Q293.12 14.55 291.25 14.55L291.25 14.55Q289.61 14.55 288.68 15.34Q287.75 16.13 287.75 17.50L287.75 17.50L281.26 17.50Q281.26 15.39 282.56 13.59Q283.86 11.79 286.24 10.77Q288.62 9.75 291.59 9.75L291.59 9.75Q296.08 9.75 298.72 12.01Q301.36 14.26 301.36 18.35L301.36 18.35L301.36 28.88Q301.38 32.34 302.32 34.12L302.32 34.12L302.32 34.50ZM290.40 29.99L290.40 29.99Q291.83 29.99 293.05 29.35Q294.26 28.71 294.84 27.63L294.84 27.63L294.84 23.45L292.42 23.45Q287.54 23.45 287.23 26.82L287.23 26.82L287.21 27.20Q287.21 28.41 288.06 29.20Q288.92 29.99 290.40 29.99Z"></path></g></svg><svg id="slogan" viewBox="0 0 209.86328125 19.16015625" width="209" height="19.081340158213123" style="fill: rgb(3, 0, 0);" x="98" y="57.593282372602204" data-v-8d8ae3dd=""><rect x="0" y="0" width="100%" height="100%" fill="none" data-v-8d8ae3dd=""></rect><g data-v-8d8ae3dd=""><path xmlns="http://www.w3.org/2000/svg" d="M11.58 0.78L11.58 3.15L7.23 3.15L7.23 15L4.30 15L4.30 3.15L0 3.15L0 0.78L11.58 0.78ZM18.84 15L18.76 13.93Q17.71 15.20 15.87 15.20L15.87 15.20Q14.17 15.20 13.28 14.22Q12.38 13.24 12.36 11.36L12.36 11.36L12.36 4.43L15.19 4.43L15.19 11.26Q15.19 12.91 16.69 12.91L16.69 12.91Q18.13 12.91 18.66 11.91L18.66 11.91L18.66 4.43L21.49 4.43L21.49 15L18.84 15ZM29.60 4.37L29.56 7.08Q28.98 7.00 28.54 7.00L28.54 7.00Q26.94 7.00 26.45 8.09L26.45 8.09L26.45 15L23.62 15L23.62 4.43L26.29 4.43L26.37 5.69Q27.22 4.24 28.72 4.24L28.72 4.24Q29.19 4.24 29.60 4.37L29.60 4.37ZM30.86 4.43L33.52 4.43L33.60 5.65Q34.74 4.24 36.64 4.24L36.64 4.24Q38.32 4.24 39.14 5.22Q39.96 6.21 39.98 8.17L39.98 8.17L39.98 15L37.16 15L37.16 8.24Q37.16 7.34 36.77 6.94Q36.38 6.53 35.47 6.53L35.47 6.53Q34.28 6.53 33.68 7.55L33.68 7.55L33.68 15L30.86 15L30.86 4.43ZM45.10 4.43L45.10 15L42.27 15L42.27 4.43L45.10 4.43ZM42.10 1.70L42.10 1.70Q42.10 1.06 42.52 0.65Q42.95 0.24 43.68 0.24L43.68 0.24Q44.40 0.24 44.83 0.65Q45.26 1.06 45.26 1.70L45.26 1.70Q45.26 2.34 44.83 2.75Q44.39 3.16 43.68 3.16Q42.97 3.16 42.53 2.75Q42.10 2.34 42.10 1.70ZM47.36 4.43L50.02 4.43L50.11 5.65Q51.24 4.24 53.14 4.24L53.14 4.24Q54.82 4.24 55.64 5.22Q56.46 6.21 56.48 8.17L56.48 8.17L56.48 15L53.66 15L53.66 8.24Q53.66 7.34 53.27 6.94Q52.88 6.53 51.97 6.53L51.97 6.53Q50.78 6.53 50.19 7.55L50.19 7.55L50.19 15L47.36 15L47.36 4.43ZM58.21 9.76L58.21 9.64Q58.21 7.21 59.37 5.72Q60.53 4.24 62.49 4.24L62.49 4.24Q64.23 4.24 65.20 5.43L65.20 5.43L65.31 4.43L67.87 4.43L67.87 14.65Q67.87 16.04 67.24 17.06Q66.61 18.09 65.47 18.62Q64.33 19.16 62.79 19.16L62.79 19.16Q61.63 19.16 60.53 18.70Q59.42 18.23 58.86 17.50L58.86 17.50L60.11 15.78Q61.16 16.96 62.67 16.96L62.67 16.96Q63.79 16.96 64.41 16.36Q65.04 15.76 65.04 14.66L65.04 14.66L65.04 14.09Q64.06 15.20 62.47 15.20L62.47 15.20Q60.57 15.20 59.39 13.71Q58.21 12.22 58.21 9.76L58.21 9.76ZM61.04 9.84L61.04 9.84Q61.04 11.28 61.61 12.09Q62.19 12.91 63.19 12.91L63.19 12.91Q64.48 12.91 65.04 11.94L65.04 11.94L65.04 7.50Q64.47 6.53 63.21 6.53L63.21 6.53Q62.20 6.53 61.62 7.36Q61.04 8.19 61.04 9.84ZM78.00 4.43L78.00 15L75.17 15L75.17 4.43L78.00 4.43ZM75 1.70L75 1.70Q75 1.06 75.42 0.65Q75.85 0.24 76.58 0.24L76.58 0.24Q77.30 0.24 77.73 0.65Q78.16 1.06 78.16 1.70L78.16 1.70Q78.16 2.34 77.73 2.75Q77.29 3.16 76.58 3.16Q75.87 3.16 75.43 2.75Q75 2.34 75 1.70ZM79.88 9.64L79.88 9.64Q79.88 7.17 80.99 5.70Q82.10 4.24 84.02 4.24L84.02 4.24Q85.57 4.24 86.57 5.39L86.57 5.39L86.57 0L89.40 0L89.40 15L86.86 15L86.72 13.88Q85.66 15.20 84.00 15.20L84.00 15.20Q82.14 15.20 81.01 13.73Q79.88 12.26 79.88 9.64ZM82.71 9.84L82.71 9.84Q82.71 11.33 83.22 12.12Q83.74 12.91 84.73 12.91L84.73 12.91Q86.04 12.91 86.57 11.81L86.57 11.81L86.57 7.64Q86.04 6.53 84.75 6.53L84.75 6.53Q82.71 6.53 82.71 9.84ZM96.46 15.20L96.46 15.20Q94.13 15.20 92.67 13.77Q91.21 12.34 91.21 9.97L91.21 9.97L91.21 9.70Q91.21 8.11 91.83 6.85Q92.44 5.60 93.57 4.92Q94.70 4.24 96.14 4.24L96.14 4.24Q98.31 4.24 99.56 5.61Q100.80 6.97 100.80 9.48L100.80 9.48L100.80 10.63L94.07 10.63Q94.21 11.67 94.90 12.29Q95.59 12.92 96.64 12.92L96.64 12.92Q98.27 12.92 99.19 11.74L99.19 11.74L100.58 13.29Q99.94 14.19 98.86 14.69Q97.77 15.20 96.46 15.20ZM96.13 6.52L96.13 6.52Q95.29 6.52 94.77 7.09Q94.25 7.66 94.10 8.71L94.10 8.71L98.03 8.71L98.03 8.49Q98.01 7.55 97.52 7.04Q97.03 6.52 96.13 6.52ZM111.38 15L108.53 15Q108.33 14.62 108.24 14.05L108.24 14.05Q107.22 15.20 105.58 15.20L105.58 15.20Q104.02 15.20 103.00 14.30Q101.98 13.40 101.98 12.03L101.98 12.03Q101.98 10.35 103.23 9.45Q104.47 8.55 106.83 8.54L106.83 8.54L108.13 8.54L108.13 7.94Q108.13 7.21 107.75 6.77Q107.37 6.33 106.56 6.33L106.56 6.33Q105.85 6.33 105.44 6.67Q105.04 7.01 105.04 7.61L105.04 7.61L102.22 7.61Q102.22 6.69 102.78 5.91Q103.35 5.13 104.38 4.68Q105.42 4.24 106.71 4.24L106.71 4.24Q108.66 4.24 109.81 5.22Q110.96 6.20 110.96 7.98L110.96 7.98L110.96 12.56Q110.97 14.06 111.38 14.83L111.38 14.83L111.38 15ZM106.19 13.04L106.19 13.04Q106.82 13.04 107.34 12.76Q107.87 12.48 108.13 12.01L108.13 12.01L108.13 10.20L107.07 10.20Q104.95 10.20 104.81 11.66L104.81 11.66L104.80 11.83Q104.80 12.35 105.18 12.70Q105.55 13.04 106.19 13.04ZM118.85 12.08L118.85 12.08Q118.85 11.56 118.33 11.26Q117.82 10.97 116.69 10.73L116.69 10.73Q112.92 9.94 112.92 7.53L112.92 7.53Q112.92 6.12 114.09 5.18Q115.25 4.24 117.14 4.24L117.14 4.24Q119.15 4.24 120.36 5.19Q121.56 6.13 121.56 7.65L121.56 7.65L118.74 7.65Q118.74 7.04 118.35 6.65Q117.96 6.25 117.13 6.25L117.13 6.25Q116.42 6.25 116.03 6.57Q115.63 6.89 115.63 7.39L115.63 7.39Q115.63 7.86 116.08 8.15Q116.52 8.44 117.58 8.65Q118.63 8.86 119.36 9.12L119.36 9.12Q121.59 9.94 121.59 11.96L121.59 11.96Q121.59 13.41 120.35 14.30Q119.11 15.20 117.15 15.20L117.15 15.20Q115.82 15.20 114.79 14.72Q113.76 14.25 113.17 13.42Q112.59 12.60 112.59 11.64L112.59 11.64L115.26 11.64Q115.30 12.39 115.82 12.79Q116.34 13.19 117.21 13.19L117.21 13.19Q118.02 13.19 118.43 12.89Q118.85 12.58 118.85 12.08ZM131.37 4.43L131.37 15L128.54 15L128.54 4.43L131.37 4.43ZM128.37 1.70L128.37 1.70Q128.37 1.06 128.79 0.65Q129.22 0.24 129.95 0.24L129.95 0.24Q130.67 0.24 131.10 0.65Q131.53 1.06 131.53 1.70L131.53 1.70Q131.53 2.34 131.10 2.75Q130.66 3.16 129.95 3.16Q129.24 3.16 128.80 2.75Q128.37 2.34 128.37 1.70ZM133.63 4.43L136.29 4.43L136.38 5.65Q137.51 4.24 139.41 4.24L139.41 4.24Q141.09 4.24 141.91 5.22Q142.73 6.21 142.75 8.17L142.75 8.17L142.75 15L139.93 15L139.93 8.24Q139.93 7.34 139.54 6.94Q139.15 6.53 138.24 6.53L138.24 6.53Q137.05 6.53 136.46 7.55L136.46 7.55L136.46 15L133.63 15L133.63 4.43ZM145.45 1.84L148.27 1.84L148.27 4.43L150.08 4.43L150.08 6.50L148.27 6.50L148.27 11.78Q148.27 12.36 148.50 12.62Q148.72 12.87 149.36 12.87L149.36 12.87Q149.82 12.87 150.19 12.80L150.19 12.80L150.19 14.94Q149.36 15.20 148.48 15.20L148.48 15.20Q145.51 15.20 145.45 12.20L145.45 12.20L145.45 6.50L143.91 6.50L143.91 4.43L145.45 4.43L145.45 1.84ZM150.92 9.75L150.92 9.62Q150.92 8.05 151.52 6.82Q152.13 5.59 153.27 4.91Q154.40 4.24 155.91 4.24L155.91 4.24Q158.05 4.24 159.40 5.55Q160.75 6.86 160.91 9.10L160.91 9.10L160.93 9.82Q160.93 12.26 159.57 13.73Q158.21 15.20 155.93 15.20Q153.64 15.20 152.28 13.73Q150.92 12.27 150.92 9.75L150.92 9.75ZM153.74 9.82L153.74 9.82Q153.74 11.33 154.31 12.12Q154.87 12.92 155.93 12.92L155.93 12.92Q156.95 12.92 157.53 12.13Q158.11 11.35 158.11 9.62L158.11 9.62Q158.11 8.14 157.53 7.33Q156.95 6.52 155.91 6.52L155.91 6.52Q154.87 6.52 154.31 7.33Q153.74 8.13 153.74 9.82ZM172.04 12.92L172.04 12.92Q172.82 12.92 173.31 12.49Q173.80 12.06 173.82 11.35L173.82 11.35L176.46 11.35Q176.46 12.42 175.88 13.32Q175.30 14.21 174.30 14.70Q173.30 15.20 172.09 15.20L172.09 15.20Q169.82 15.20 168.52 13.75Q167.21 12.31 167.21 9.78L167.21 9.78L167.21 9.59Q167.21 7.15 168.51 5.69Q169.80 4.24 172.07 4.24L172.07 4.24Q174.05 4.24 175.25 5.37Q176.45 6.49 176.46 8.37L176.46 8.37L173.82 8.37Q173.80 7.55 173.31 7.04Q172.82 6.52 172.02 6.52L172.02 6.52Q171.04 6.52 170.53 7.24Q170.03 7.96 170.03 9.57L170.03 9.57L170.03 9.86Q170.03 11.49 170.53 12.21Q171.03 12.92 172.04 12.92ZM177.64 9.75L177.64 9.62Q177.64 8.05 178.24 6.82Q178.85 5.59 179.99 4.91Q181.12 4.24 182.63 4.24L182.63 4.24Q184.77 4.24 186.12 5.55Q187.47 6.86 187.63 9.10L187.63 9.10L187.65 9.82Q187.65 12.26 186.29 13.73Q184.93 15.20 182.65 15.20Q180.36 15.20 179.00 13.73Q177.64 12.27 177.64 9.75L177.64 9.75ZM180.46 9.82L180.46 9.82Q180.46 11.33 181.03 12.12Q181.59 12.92 182.65 12.92L182.65 12.92Q183.67 12.92 184.25 12.13Q184.82 11.35 184.82 9.62L184.82 9.62Q184.82 8.14 184.25 7.33Q183.67 6.52 182.63 6.52L182.63 6.52Q181.59 6.52 181.03 7.33Q180.46 8.13 180.46 9.82ZM188.95 9.64L188.95 9.64Q188.95 7.17 190.05 5.70Q191.16 4.24 193.09 4.24L193.09 4.24Q194.63 4.24 195.63 5.39L195.63 5.39L195.63 0L198.47 0L198.47 15L195.92 15L195.78 13.88Q194.73 15.20 193.07 15.20L193.07 15.20Q191.20 15.20 190.07 13.73Q188.95 12.26 188.95 9.64ZM191.77 9.84L191.77 9.84Q191.77 11.33 192.29 12.12Q192.80 12.91 193.79 12.91L193.79 12.91Q195.10 12.91 195.63 11.81L195.63 11.81L195.63 7.64Q195.11 6.53 193.81 6.53L193.81 6.53Q191.77 6.53 191.77 9.84ZM205.52 15.20L205.52 15.20Q203.19 15.20 201.73 13.77Q200.27 12.34 200.27 9.97L200.27 9.97L200.27 9.70Q200.27 8.11 200.89 6.85Q201.50 5.60 202.63 4.92Q203.76 4.24 205.21 4.24L205.21 4.24Q207.37 4.24 208.62 5.61Q209.86 6.97 209.86 9.48L209.86 9.48L209.86 10.63L203.13 10.63Q203.27 11.67 203.96 12.29Q204.65 12.92 205.70 12.92L205.70 12.92Q207.33 12.92 208.25 11.74L208.25 11.74L209.64 13.29Q209.00 14.19 207.92 14.69Q206.84 15.20 205.52 15.20ZM205.20 6.52L205.20 6.52Q204.36 6.52 203.83 7.09Q203.31 7.66 203.16 8.71L203.16 8.71L207.09 8.71L207.09 8.49Q207.07 7.55 206.58 7.04Q206.09 6.52 205.20 6.52Z"></path></g></svg></svg>