<svg xmlns="http://www.w3.org/2000/svg" width="442" height="76" viewBox="0 0 442 76" class="editor-view__logo-preview" data-v-8d8ae3dd="" data-v-b0ffd048=""><svg id="mark" viewBox="0 0 100 100" width="76" height="76" style="fill: rgb(235, 200, 0);" x="0" y="0" data-v-8d8ae3dd=""><rect x="0" y="0" width="100%" height="100%" fill="none" data-v-8d8ae3dd=""></rect><g data-v-8d8ae3dd=""><g xmlns="http://www.w3.org/2000/svg"><path d="M30.786,57.355l0.036,0.292v0.348v0.003l0.052,0.422l0.068,0.281l0.037,0.341l0.036,0.071l0.065,0.355l0.133,0.359   l0.088,0.26l0.032,0.317l0.039,0.074l0.068,0.373l0.15,0.393l0.03,0.039l0.016,0.07l0.18,0.395l0.125,0.322l0.147,0.432   l0.062,0.084l0.035,0.146l0.201,0.395l0.103,0.112l0.038,0.119l0.193,0.268l0.208,0.371l0.078,0.081l0.027,0.086l0.172,0.239   l0.143,0.284l0.178,0.196l0.059,0.159l0.254,0.291l0.132,0.185l0.146,0.288l0.174,0.191l0.059,0.156l0.304,0.352l0.003,0.002v0.001   l0.304,0.351l0.053,0.04l0.041,0.061l0.199,0.195l0.204,0.241l0.003,0.003l0.001,0.002l0.254,0.301l0.222,0.17l0.137,0.147   l0.174,0.115l0.188,0.184l0.003,0.002l0.005,0.006l0.207,0.2l0,0l0.002,0.001l0.207,0.199l0.104,0.043l0.145,0.154l0.038,0.025   l0.021,0.029l0.223,0.197l0.197,0.219l0.192,0.132l0.246,0.178l0.017,0.006l0.051,0.055l0.158,0.104l0.033,0.01l0.096,0.08   l0.129,0.047l0.036,0.023l0.071,0.015l0.007,0.003l0.113,0.081l0.007,0.008l0.031,0.019l0.121,0.089l0.028,0.009l0.002,0.001   l0.025,0.008l0.169,0.053l0.024,0.003l0.176,0.053l0.007,0.006l0.237,0.098l0.528,0.106l0.455-0.115l0.064-0.008l0.07-0.021   l0.01-0.007l0.054-0.014l0.052-0.027h0.013h0.004h0.103l0.017,0.001l0.309-0.052h0.049h0.033h0.05l0.307-0.067l0.358-0.072   l0.24-0.097l0.053-0.043l0.058-0.012l0.021-0.009l0.015-0.003l0.021-0.012l0.07-0.028l0.084-0.022l0.305-0.198l0.076-0.026   l0.087-0.017l0.024-0.018l0.116-0.026h0.079h0.149l0.723-0.146l0.131-0.089l0.077-0.016h0.001l0,0l0.015-0.011l0.176-0.035   l0.003-0.002h0.002l0.049-0.032l0.11-0.023l0.151-0.104l0.002-0.001h0.003l0.003-0.003l0.1-0.028l0.093-0.103l0.194-0.133   l0.149-0.029l0.003-0.003h0.003l0.125-0.084l0.078-0.017l0.004-0.001l0.003-0.002l0.195-0.132l0.118-0.025l0.182-0.125l0.105-0.021   l0.06-0.041l0.039-0.009l0,0l0.015-0.003l0.092-0.046l0.093-0.084l0.264-0.177l0.164-0.055l0.174-0.238l0.008-0.005l0.045-0.016   l0.037-0.028l0.118-0.04l0.197-0.148l0.005-0.004l0.151-0.052l0.197-0.15l0.003-0.003l0.004-0.001l0.197-0.149l0.024-0.029   l0.024-0.009l0.249-0.201l0.059-0.072l0.091-0.063l0.146-0.146l0.077-0.064l0.013-0.008l0.052-0.047l0.05-0.041l0.481-0.377   l0.139-0.168l0.109-0.088l0.111-0.141l0.146-0.113l0.138-0.168l0.11-0.088l0.494-0.624l0.019-0.078l0.033-0.034l0.181-0.268   l0.111-0.112l0.086-0.15l0.078-0.079l0.393-0.582l0.027-0.141l0.045-0.063l0.082-0.293l0.043-0.116l0.114-0.162l0.039-0.122   l0.102-0.112l0.204-0.417l0.032-0.144l0.063-0.081l0.14-0.431l0.142-0.389l0.029-0.166l0.036-0.059l0.077-0.346l0.105-0.292   l0.036-0.202l0.041-0.067l0.091-0.484l0.098-0.449l0.003-0.021l0.003-0.006l0.1-0.519l0.011-0.104l0.01-0.019l0.042-0.345   l0.085-0.446l0.014-0.143l0.01-0.022l0.05-0.514l0.008-0.171v-0.007l-0.002-0.405v-0.004l-0.003-0.507v-0.008l-0.003-0.454v-0.002   l-0.006-0.405v-0.007l-0.012-0.199l-0.056-0.445l-0.021-0.04l-0.026-0.211l-0.074-0.276l-0.041-0.337l-0.021-0.04l-0.028-0.206   l-0.104-0.392l-0.009-0.017l-0.009-0.046l-0.1-0.343l-0.049-0.07l-0.031-0.149l-0.132-0.297l-0.145-0.373l-0.197-0.251l-0.082-0.23   l-0.083-0.101l-0.069-0.135l-0.085-0.094L51.76,50.27l-0.203-0.201L51.47,50.01l-0.055-0.068l-0.107-0.084l-0.083-0.103   l-0.177-0.14l-0.133-0.157l-0.208-0.154l-0.33-0.109l-0.277-0.18l-0.215-0.053l-0.417-0.051h-0.004l-0.16,0.001l-0.163-0.027   l-0.28-0.023l-0.357,0.037l-0.209,0.044l-0.283,0.048l-0.06,0.034l-0.213,0.036l-0.292,0.099l-0.24,0.176l-0.256,0.086   l-0.069,0.052l-0.161,0.08l-0.022,0.021l-0.088-0.011l-0.033,0.001l-0.102,0.001l-0.039,0.017l-0.393,0.095l-0.118,0.024   l-0.012,0.007l-0.21,0.051l-0.091,0.046l-0.08,0.074l-0.097,0.029l-0.146,0.096l-0.173,0.188l-0.262,0.217l-0.081,0.107   l-0.063,0.064l-0.38,0.561l-0.048,0.233l-0.054,0.088l-0.032,0.156l-0.062,0.181l-0.109,0.156l-0.252,0.255l-0.182,0.271   l-0.102,0.104l-0.233,0.423l-0.161,0.26l-0.219,0.257l-0.015,0.039l-0.051,0.042l-0.307,0.409l-0.028,0.086l-0.084,0.085   L42.3,54.351l-0.089,0.089L42.21,54.44l0,0l-0.304,0.305l-0.003,0.003L41.9,54.75l-0.202,0.204l-0.02,0.048L41.6,55.063   l-0.06,0.072l-0.095,0.047l-0.246,0.041l-0.017-0.003l-0.046-0.028l-0.036-0.006l-0.096-0.047l-0.047-0.012l-0.031-0.024   l-0.221-0.095l-0.109-0.072l-0.069-0.055l-0.199-0.232l-0.069-0.053l-0.017-0.04l-0.304-0.303l-0.19-0.193l-0.089-0.154   l-0.103-0.104l-0.177-0.263l-0.234-0.233l-0.192-0.289l-0.243-0.389l-0.119-0.114l-0.037-0.098l-0.303-0.352l-0.002-0.002   l-0.001-0.001l-0.233-0.272l-0.146-0.22l-0.166-0.15l-0.043-0.104l-0.189-0.191l-0.354-0.443l-0.17-0.136l-0.029-0.027   l-0.039-0.039l-0.021-0.063l-0.146-0.087L36.351,50l-0.322-0.082l-0.152-0.091l-0.264-0.052l-0.335-0.033h-0.011h-0.096h-0.146   h-0.251h-0.004l-0.669,0.134l-0.057,0.038l-0.053,0.013l-0.091,0.046l-0.164,0.148l-0.083,0.056l-0.228,0.063l-0.246,0.147   l-0.076,0.079l-0.079,0.026l-0.199,0.149l-0.003,0.003l-0.003,0.001l-0.198,0.148l-0.069,0.083l-0.115,0.077l-0.151,0.153   l-0.076,0.112l-0.081,0.068l-0.145,0.193l-0.155,0.206h-0.001l-0.001,0.003l-0.155,0.206l-0.082,0.245l-0.17,0.23l-0.067,0.2   l-0.041,0.084l0,0l-0.156,0.313l-0.091,0.383l-0.073,0.133l-0.029,0.211l-0.053,0.159l-0.038,0.23l-0.031,0.06l-0.053,0.363   l-0.018,0.241v0.002v0.232l-0.034,0.234l-0.017,0.244v0.456v0.005l0.002,0.354v0.002l0.015,0.221l0.036,0.288v0.347L30.786,57.355z    M49.815,54.986l-0.001,0.057l-0.009-0.008V54.89L49.815,54.986z"></path><polygon points="68.519,62.195 68.689,62.092 68.799,61.98 68.898,61.945 69.145,61.746 69.145,61.746 69.395,61.546    69.522,61.387 69.685,61.258 69.759,61.166 69.847,61.096 69.852,61.09 69.855,61.088 70.105,60.888 70.308,60.636 70.491,60.467    70.653,60.224 70.806,60.034 70.827,59.972 70.899,59.906 71.001,59.751 71.172,59.58 71.357,59.302 71.473,59.188 71.511,59.118    71.552,59.083 71.938,58.588 72.02,58.495 72.164,58.211 72.329,57.979 72.329,57.979 72.585,57.618 72.61,57.54 72.684,57.465    72.869,57.138 73.104,56.764 73.112,56.731 73.139,56.705 73.345,56.341 73.37,56.248 73.428,56.183 73.634,55.713 73.64,55.681    73.654,55.661 73.769,55.372 73.924,55.165 74.022,54.864 74.214,54.594 74.29,54.336 74.44,54.109 74.493,53.93 74.611,53.782    74.812,53.276 74.812,53.274 75.018,52.755 75.035,52.657 75.067,52.613 75.209,52.131 75.351,51.7 75.351,51.7 75.555,51.078    75.56,51.052 75.566,51.041 75.722,50.521 75.766,50.213 75.79,50.165 75.821,49.813 75.907,49.557 75.916,49.494 75.934,49.468    76.085,48.897 76.119,48.642 76.14,48.601 76.178,48.178 76.259,47.756 76.275,47.602 76.285,47.58 76.331,47.065 76.34,46.901    76.338,46.871 76.334,46.653 76.396,46.327 76.428,45.989 76.428,45.967 76.422,45.513 76.422,45.512 76.422,45.51 76.419,45.152    76.453,44.79 76.46,44.62 76.46,44.594 76.454,44.088 76.454,44.088 76.453,44.075 76.445,43.677 76.437,43.173 76.437,43.172    76.437,43.166 76.428,42.711 76.428,42.709 76.419,42.306 76.418,42.293 76.404,42.108 76.349,41.662 76.328,41.623 76.3,41.415    76.225,41.14 76.184,40.804 76.125,40.694 76.036,40.294 75.883,39.954 75.882,39.951 75.88,39.946 75.728,39.604 75.691,39.563    75.674,39.5 75.521,39.208 75.371,39.047 75.318,38.905 75.165,38.72 75.003,38.483 74.899,38.39 74.785,38.226 74.579,38.025    74.417,37.96 74.399,37.943 74.394,37.942 74.147,37.72 73.847,37.574 73.846,37.573 73.59,37.447 73.399,37.336 73.398,37.335    73.136,37.181 72.782,37.084 72.603,36.978 72.338,36.927 72.306,36.924 72.297,36.92 72.117,36.891 71.938,36.833 71.413,36.75    71.393,36.75 71.195,36.753 70.847,36.755 70.844,36.755 70.54,36.756 70.53,36.761 69.904,36.886 69.83,36.917 69.731,36.933    69.731,36.933 69.386,36.988 69.325,37.021 69.087,37.061 68.796,37.161 68.748,37.197 68.654,37.217 68.41,37.324 68.158,37.397    68.089,37.445 67.944,37.477 67.602,37.628 67.567,37.658 67.512,37.671 67.217,37.821 67.166,37.868 67.1,37.887 66.874,38.023    66.528,38.225 66.515,38.238 66.496,38.244 66.25,38.394 66.152,38.493 66.063,38.525 65.813,38.728 65.739,38.822 65.683,38.845    65.494,39.035 65.313,39.182 65.232,39.282 65.175,39.307 65.025,39.458 64.826,39.658 64.806,39.705 64.726,39.768 64.472,40.075    64.461,40.106 64.42,40.14 64.267,40.348 64.205,40.532 64.063,40.708 64.005,40.853 63.928,40.984 63.928,40.985 63.771,41.246    63.654,41.674 63.557,41.852 63.542,41.959 63.539,41.968 63.473,42.048 63.324,42.404 63.323,42.404 63.174,42.759 63.174,42.76    63.02,43.127 63.013,43.166 62.994,43.188 62.842,43.605 62.821,43.727 62.791,43.773 62.7,44.155 62.624,44.425 62.497,44.771    62.492,44.799 62.482,44.814 62.329,45.281 62.288,45.532 62.26,45.587 62.238,45.774 62.176,45.92 62.161,45.995 62.132,46.034    61.979,46.502 61.943,46.726 61.915,46.779 61.891,46.97 61.801,47.214 61.753,47.483 61.717,47.549 61.68,47.846 61.596,48.242    61.584,48.343 61.574,48.362 61.546,48.586 61.493,48.757 61.457,48.982 61.431,49.03 61.387,49.388 61.387,49.388 61.36,49.611    61.306,49.784 61.284,49.935 61.26,49.977 61.216,50.241 61.192,50.5 61.195,50.547 61.195,50.606 61.11,51.007 61.113,51.096    61.125,51.294 61.126,51.299 61.131,51.359 61.143,51.497 61.143,51.5 61.16,51.694 61.213,51.804 61.325,52.259 61.434,52.384    61.434,52.708 61.396,53.001 61.381,53.236 61.381,53.237 61.381,53.694 61.381,53.697 61.381,53.84 61.353,53.942 61.282,54.454    61.282,54.454 61.282,54.91 61.282,54.91 61.282,55.315 61.282,55.667 61.281,56.12 61.281,56.523 61.279,56.827 61.279,56.832    61.278,57.238 61.278,57.643 61.278,57.895 61.278,57.897 61.278,58.354 61.278,58.355 61.352,58.884 61.378,58.977 61.393,59.2    61.441,59.597 61.49,59.688 61.563,60.073 61.587,60.131 61.604,60.237 61.688,60.381 61.778,60.771 61.926,61.064 62.056,61.207    62.104,61.356 62.149,61.418 62.175,61.468 62.211,61.511 62.229,61.569 62.75,62.108 62.756,62.114 62.762,62.119 62.86,62.229    62.871,62.232 62.88,62.242 62.968,62.295 63.351,62.618 63.398,62.662 63.41,62.669 63.411,62.669 63.61,62.771 63.86,62.831    63.99,62.915 64.205,62.971 64.316,62.984 64.346,63.002 64.412,63.014 64.444,63.036 65.18,63.184 65.889,63.184 66.505,63.08    66.654,63.03 66.811,63.004 66.824,62.996 66.885,62.99 67.126,62.94 67.457,62.741 67.889,62.598 67.953,62.547 68.109,62.469    68.254,62.335 68.401,62.286  "></polygon><polygon points="60.671,23.685 60.533,23.641 60.531,23.641 60.215,23.538 59.717,23.458 59.704,23.458 59.502,23.46 59.501,23.46    59.299,23.461 59.29,23.465 58.788,23.549 58.554,23.629 58.404,23.667 58.374,23.688 58.287,23.702 57.994,23.8 57.781,23.956    57.776,23.957 57.483,24.056 57.353,24.152 57.161,24.207 56.914,24.355 56.88,24.391 56.84,24.402 56.543,24.604 56.468,24.687    56.401,24.71 56.113,24.957 55.925,25.112 55.763,25.222 55.548,25.333 55.397,25.473 55.265,25.521 55.146,25.618 54.991,25.698    54.914,25.77 54.826,25.796 54.53,25.998 54.391,26.153 54.284,26.238 54.18,26.264 53.987,26.363 53.91,26.434 53.82,26.462    53.521,26.664 53.483,26.708 53.442,26.722 53.245,26.874 53.242,26.876 53.239,26.878 53.043,27.03 53.042,27.033 53.039,27.033    52.906,27.136 52.773,27.217 52.727,27.242 52.529,27.31 52.154,27.587 52.139,27.599 52.133,27.6 51.926,27.65 51.631,27.798    51.511,27.907 51.39,27.947 51.19,28.097 51.095,28.212 51.027,28.24 50.952,28.316 50.837,28.404 50.835,28.405 50.834,28.405    50.635,28.556 50.48,28.607 50.281,28.757 50.187,28.872 50.118,28.9 49.967,29.052 49.965,29.053 49.964,29.053 49.813,29.206    49.771,29.305 49.762,29.31 49.61,29.462 49.572,29.554 49.552,29.576 49.414,29.704 49.396,29.733 49.355,29.775 49.33,29.835    49.313,29.863 49.294,29.923 49.266,29.992 49.241,30.026 49.17,30.087 49.017,30.294 48.927,30.568 48.871,30.642 48.777,30.928    48.617,31.17 48.589,31.284 48.525,31.442 48.49,31.625 48.449,31.692 48.396,31.955 48.392,31.991 48.387,31.999 48.334,32.313    48.313,32.559 48.313,32.561 48.313,32.653 48.27,32.806 48.212,33.22 48.211,33.221 48.21,33.576 48.21,33.579 48.21,33.984    48.21,33.985 48.21,34.34 48.21,34.343 48.212,34.799 48.212,34.805 48.214,35.16 48.216,35.164 48.278,35.589 48.37,35.899    48.473,36.291 48.475,36.293 48.475,36.302 48.559,36.622 48.604,36.904 48.643,36.975 48.69,37.223 48.843,37.616 48.891,37.677    48.914,37.774 49.044,38.023 49.105,38.163 49.132,38.326 49.166,38.387 49.206,38.605 49.313,38.896 49.345,38.94 49.363,39.02    49.466,39.243 49.498,39.365 49.583,39.494 49.643,39.72 49.716,39.85 49.723,39.926 49.803,40.091 49.953,40.584 50.048,40.728    50.069,40.764 50.086,40.801 50.099,40.848 50.123,40.884 50.126,40.889 50.131,40.896 50.187,40.979 50.244,41.182 50.446,41.369    50.541,41.511 50.637,41.544 50.664,41.566 50.664,41.569 50.679,41.604 50.722,41.622 50.736,41.634 50.785,41.659 50.84,41.709    50.855,41.774 50.912,41.862 50.957,42.223 50.957,42.225 50.957,42.24 51.04,42.767 51.085,42.906 51.366,43.298 51.401,43.425    51.445,43.466 51.492,43.582 51.616,43.708 51.653,43.829 51.885,44.009 52.03,44.217 52.241,44.288 52.444,44.446 52.605,44.507    52.862,44.552 52.896,44.565 52.991,44.583 53,44.594 53.031,44.704 53.177,44.95 53.38,45.149 53.38,45.149 53.435,45.279    53.535,45.38 53.539,45.383 53.542,45.387 53.695,45.538 53.797,45.581 53.948,45.747 54.106,45.852 54.327,45.918 54.388,45.962    54.432,46.003 54.466,46.021 54.499,46.045 54.551,46.063 54.646,46.109 55.4,46.287 55.404,46.29 55.557,46.29 55.707,46.29    55.907,46.291 55.916,46.291 56.583,46.156 56.718,46.064 56.771,46.047 56.808,46.018 56.873,45.999 56.92,45.967 57.01,45.945    57.202,45.847 57.297,45.76 57.393,45.693 57.394,45.693 57.938,45.323 58.142,45.119 58.142,45.119 58.142,45.119 58.204,45.056    58.306,44.979 58.413,44.853 58.489,44.821 58.626,44.684 58.808,44.539 59.272,43.956 59.29,43.885 59.324,43.842 59.379,43.705    59.417,43.639 59.517,43.552 59.67,43.341 59.711,43.216 59.817,43.097 59.971,42.781 60.023,42.553 60.093,42.445 60.143,42.23    60.178,41.933 60.306,41.722 60.327,41.612 60.368,41.505 60.491,40.877 60.491,40.823 60.522,40.743 60.571,40.484 60.618,40.403    60.647,40.221 60.708,40.043 60.733,39.895 60.76,39.846 60.813,39.582 60.815,39.547 60.821,39.539 60.851,39.356 60.91,39.177    60.934,39.034 60.961,38.988 60.97,38.944 61.021,38.843 61.11,38.464 61.181,38.335 61.194,38.238 61.311,38.083 61.416,37.767    61.43,37.682 61.451,37.649 61.46,37.61 61.463,37.605 61.523,37.523 61.628,37.208 61.804,36.94 61.83,36.835 61.876,36.717    62.024,36.521 62.114,36.257 62.132,36.241 62.234,36.083 62.259,36.011 62.312,35.928 62.323,35.887 62.385,35.801 62.417,35.709    62.426,35.695 62.478,35.545 62.631,35.336 62.686,35.172 62.741,34.826 62.819,34.703 62.854,34.563 62.897,34.477 62.927,34.352    63.188,33.916 63.239,33.65 63.263,33.425 63.336,33.299 63.388,33.035 63.419,32.716 63.419,32.7 63.417,32.613 63.434,32.521    63.457,32.284 63.478,32.219 63.56,31.703 63.56,31.689 63.557,31.335 63.557,31.333 63.554,31.031 63.551,30.727 63.551,30.725    63.548,30.373 63.545,30.019 63.542,30.009 63.439,29.501 63.439,29.41 63.438,29.408 63.426,29.217 63.371,28.77 63.364,28.756    63.356,28.667 63.327,28.511 63.327,28.296 63.324,28.29 63.257,27.836 63.188,27.6 63.15,27.355 63.098,27.258 63.03,26.936    62.907,26.659 62.857,26.512 62.824,26.354 62.747,26.227 62.678,25.941 62.607,25.802 62.6,25.77 62.563,25.717 62.528,25.647    62.521,25.638 62.471,25.436 62.32,25.142 62.207,25.018 62.164,24.895 62.014,24.696 61.894,24.596 61.864,24.525 61.711,24.374    61.642,24.345 61.543,24.229 61.341,24.079 61.341,24.078 61.134,23.925 60.893,23.845  "></polygon><polygon points="25.959,23.438 25.968,23.458 25.982,23.606 26.066,24.069 26.11,24.593 26.134,24.64 26.182,24.963 26.321,25.425    26.321,25.426 26.47,25.972 26.51,26.031 26.537,26.171 26.695,26.571 26.815,27.01 26.815,27.011 26.965,27.607 27.063,27.761    27.138,28.046 27.331,28.394 27.493,28.798 27.581,28.907 27.623,29.059 27.866,29.463 28.027,29.823 28.237,30.071 28.312,30.268    28.657,30.663 28.957,31.013 28.968,31.021 28.971,31.028 29.324,31.432 29.506,31.569 29.626,31.705 29.956,31.939 30.386,32.271    30.417,32.281 30.448,32.317 30.813,32.569 30.933,32.607 31.041,32.705 31.337,32.848 31.584,33.02 31.859,33.105 32.077,33.257    32.323,33.328 32.447,33.413 32.778,33.518 33.021,33.674 33.303,33.74 33.529,33.835 33.554,33.84 33.568,33.851 33.834,33.953    34.104,34.002 34.182,34.045 34.488,34.092 34.489,34.092 34.635,34.114 35.257,34.254 35.285,34.253 35.487,34.25 35.487,34.25    35.512,34.25 35.653,34.246 35.799,34.243 35.799,34.243 35.813,34.243 35.961,34.239 36.02,34.214 36.466,34.101 36.472,34.1    36.474,34.099 36.718,34.037 36.89,33.945 37.107,33.887 37.306,33.688 37.482,33.622 37.51,33.598 37.557,33.537 37.592,33.522    37.622,33.45 37.627,33.443 37.694,33.399 37.723,33.316 37.908,33.07 38.056,32.404 38.045,32.359 38.119,32.25 38.164,32.027    38.219,31.946 38.243,31.824 38.266,31.792 38.299,31.625 38.321,31.592 38.322,31.587 38.324,31.584 38.339,31.512 38.422,31.389    38.575,30.63 38.575,30.605 38.573,30.51 38.573,30.364 38.573,30.364 38.573,30.319 38.573,30.174 38.572,30.124 38.57,30.091    38.57,29.955 38.413,29.204 38.326,29.076 38.312,29.005 38.286,28.968 38.256,28.88 38.246,28.866 38.201,28.779 38.194,28.773    38.171,28.637 38.134,28.57 38.092,28.326 38.05,28.201 38.023,28.02 37.96,27.906 37.88,27.519 37.73,27.178 37.728,27.174    37.725,27.165 37.667,27.033 37.654,26.958 37.591,26.847 37.521,26.513 37.373,26.17 37.291,26.072 37.286,26.06 37.279,26    37.259,25.96 37.259,25.958 37.229,25.735 37.152,25.439 37.118,25.214 37.066,24.784 37.055,24.76 37.039,24.616 36.938,24.121    36.893,24.046 36.851,23.822 36.718,23.473 36.588,23.087 36.494,22.764 36.463,22.719 36.443,22.612 36.311,22.262 36.182,21.874    36.156,21.76 36.057,21.265 36.013,21.192 35.973,20.977 35.847,20.644 35.709,20.19 35.639,20.091 35.594,19.905 35.451,19.622    35.338,19.282 35.335,19.28 35.334,19.272 35.187,18.829 35.093,18.701 35.039,18.502 34.84,18.156 34.812,18.128 34.802,18.093    34.573,17.729 34.387,17.402 34.338,17.352 34.319,17.293 34.121,16.995 34.119,16.993 34.118,16.989 33.919,16.691 33.818,16.6    33.702,16.427 33.571,16.295 33.465,16.134 33.223,15.911 32.985,15.652 32.818,15.541 32.737,15.459 32.51,15.307 32.406,15.2    32.149,15.048 32.149,15.047 31.887,14.892 31.528,14.794 31.342,14.683 31.234,14.662 31.128,14.621 30.493,14.5 30.295,14.5    30.096,14.5 30.087,14.5 29.411,14.636 29.38,14.658 29.308,14.669 29.253,14.7 29.041,14.733 28.9,14.778 28.659,14.951    28.587,14.975 28.55,14.983 28.535,14.993 28.388,15.041 28.188,15.189 28.117,15.273 27.996,15.355 27.793,15.557 27.792,15.558    27.791,15.559 27.537,15.811 27.479,15.898 27.411,15.952 27.205,16.209 27.156,16.35 27.014,16.504 26.856,16.817 26.844,16.868    26.815,16.901 26.659,17.267 26.632,17.399 26.587,17.462 26.513,17.722 26.403,17.976 26.387,18.059 26.354,18.102 26.198,18.57    26.147,18.885 26.117,18.943 26.075,19.37 25.99,19.795 25.976,19.935 25.966,19.956 25.914,20.47 25.905,20.638 25.904,20.64    25.903,21.147 25.903,21.15 25.902,21.708 25.902,22.214 25.901,22.72 25.901,22.723 25.909,22.888  "></polygon><polygon points="40.158,16.967 40.158,17.265 40.158,17.28 40.161,17.477 40.161,17.777 40.161,17.779 40.164,18.083 40.164,18.09    40.166,18.341 40.166,18.342 40.169,18.645 40.169,18.651 40.174,18.954 40.176,18.96 40.209,19.276 40.228,19.363 40.23,19.558    40.23,19.563 40.233,19.866 40.239,19.879 40.326,20.382 40.398,20.588 40.401,20.603 40.406,20.75 40.418,20.778 40.507,21.266    40.583,21.471 40.624,21.636 40.625,21.639 40.628,21.652 40.688,21.891 40.774,22.025 40.774,22.03 40.786,22.055 40.8,22.104    40.85,22.406 40.911,22.593 40.955,22.654 40.98,22.77 41.092,23.007 41.168,23.094 41.181,23.146 41.213,23.184 41.233,23.247    41.295,23.334 41.389,23.416 41.443,23.521 41.556,23.643 41.596,23.757 41.752,23.858 41.952,24.074 42.124,24.123 42.247,24.2    42.283,24.21 42.288,24.213 42.344,24.235 42.359,24.245 42.462,24.268 42.577,24.348 42.579,24.348 42.613,24.385 42.614,24.385    42.616,24.39 42.632,24.396 42.638,24.411 42.676,24.427 43.149,24.758 43.177,24.763 43.248,24.814 43.805,24.929 43.98,25.004    44.028,25.005 44.031,25.007 44.038,25.007 44.091,25.083 44.689,25.487 45.424,25.635 45.525,25.635 45.55,25.635 45.649,25.634    46.035,25.552 46.357,25.487 46.366,25.481 46.376,25.479 46.471,25.415 46.614,25.385 46.617,25.383 46.621,25.382 46.66,25.356    46.766,25.334 46.924,25.228 47.028,25.198 47.127,25.09 47.222,25.026 47.291,25.005 47.438,24.907 47.545,24.79 47.741,24.652    47.786,24.607 47.829,24.564 47.975,24.416 48.125,24.266 48.176,24.189 48.46,23.93 48.553,23.788 48.558,23.781 48.579,23.759    48.98,23.162 48.981,23.157 49.003,23.125 49.064,23.069 49.127,22.974 49.131,22.97 49.133,22.965 49.408,22.661 49.453,22.481    49.519,22.392 49.668,22.255 49.765,22.108 49.765,22.108 49.869,21.952 50.042,21.835 50.125,21.753 50.172,21.739 50.307,21.592    50.377,21.545 50.423,21.521 50.425,21.52 50.429,21.519 50.52,21.472 50.588,21.411 50.675,21.386 50.791,21.259 50.877,21.234    51.011,21.088 51.242,20.933 51.277,20.921 51.34,20.877 51.436,20.847 51.457,20.833 51.541,20.813 51.732,20.717 51.831,20.629    51.945,20.594 52.091,20.497 52.093,20.495 52.095,20.494 52.198,20.425 52.414,20.296 52.453,20.258 52.572,20.186 52.672,20.152    52.959,20.08 53.249,19.817 53.388,19.733 53.445,19.676 53.751,19.574 53.906,19.458 54.017,19.385 54.058,19.339 54.13,19.31    54.281,19.189 54.31,19.167 54.313,19.163 54.343,19.14 54.564,19.065 54.684,18.975 54.854,18.872 55.028,18.696 55.075,18.687    55.671,18.285 55.777,18.178 55.83,18.139 56.094,17.963 56.14,17.915 56.187,17.899 56.337,17.784 56.599,17.611 56.646,17.559    56.696,17.542 56.757,17.496 56.908,17.421 57.005,17.333 57.401,17.064 57.471,16.994 57.616,16.896 57.782,16.714 58.04,16.508    58.063,16.479 58.124,16.438 58.165,16.393 58.207,16.379 58.405,16.231 58.48,16.141 58.61,16.055 58.739,15.926 58.912,15.787    58.974,15.71 59.072,15.644 59.272,15.441 59.438,15.197 59.55,15.085 59.589,15.02 59.629,14.98 59.882,14.602 59.971,14.501    60.055,14.334 60.105,14.265 60.177,14.05 60.339,13.847 60.441,13.58 60.453,13.521 60.474,13.492 60.577,13.174 60.59,13.088    60.615,13.013 60.793,12.694 60.826,12.485 60.896,12.23 60.902,12.181 60.913,12.165 60.963,11.949 61.01,11.534 61.01,11.514    61.007,11.364 61.032,11.209 61.054,10.926 61.053,10.902 61.048,10.548 61.048,10.548 61.048,10.523 61.042,10.324 61.039,10.302    61.019,10.07 60.986,9.853 60.981,9.678 60.978,9.655 60.949,9.36 60.896,9.069 60.833,8.966 60.774,8.677 60.67,8.438    60.659,8.425 60.653,8.401 60.587,8.252 60.568,8.157 60.356,7.794 60.206,7.37 60.088,7.22 59.908,6.966 59.723,6.801    59.632,6.69 59.583,6.527 59.293,6.27 59.116,6.04 58.984,5.996 58.86,5.887 58.542,5.738 58.539,5.737 58.538,5.735 58.345,5.646    58.344,5.646 58.161,5.56 58.077,5.501 57.821,5.419 57.61,5.269 57.291,5.17 57.092,5.14 57.04,5.111 56.761,5.07 56.528,5.028    56.219,5 56.203,5 55.908,5.003 55.615,5.002 55.262,5.001 55.256,5.001 54.914,5.035 54.705,5.077 54.42,5.124 54.361,5.157    54.143,5.193 53.852,5.291 53.71,5.394 53.628,5.417 53.551,5.43 53.521,5.446 53.503,5.451 53.439,5.49 53.142,5.552    52.988,5.618 52.889,5.636 52.788,5.693 52.485,5.757 52.143,5.906 51.938,6.076 51.75,6.143 51.713,6.172 51.563,6.229    51.54,6.246 51.495,6.256 50.949,6.625 50.863,6.711 50.855,6.717 50.607,6.797 50.464,6.899 50.401,6.92 50.362,6.949    50.279,6.966 49.733,7.335 49.601,7.469 49.438,7.577 49.438,7.579 49.437,7.58 49.176,7.752 48.955,7.884 48.949,7.89    48.941,7.893 48.696,8.041 48.599,8.14 48.508,8.172 48.348,8.299 48.191,8.394 48.115,8.471 48.038,8.498 47.84,8.647    47.771,8.728 47.658,8.805 47.537,8.926 47.501,8.953 47.466,8.975 47.341,9 46.797,9.37 46.794,9.373 46.722,9.417 46.681,9.458    46.653,9.464 46.541,9.532 46.415,9.575 46.293,9.668 45.96,9.781 45.908,9.82 45.467,9.926 45.459,9.93 45.301,9.95 45.11,9.999    45.078,10.019 44.755,10.099 44.452,10.15 44.313,10.2 44.23,10.261 44.091,10.295 44,10.342 43.959,10.356 43.953,10.361    43.938,10.363 43.799,10.413 43.719,10.473 43.646,10.491 43.559,10.51 43.454,10.573 43.391,10.606 43.372,10.624 43.348,10.638    42.993,10.743 42.922,10.826 42.846,10.866 42.805,10.879 42.802,10.882 42.791,10.884 42.651,10.933 42.478,11.063 42.26,11.129    42.2,11.17 42.192,11.174 42.187,11.179 42.114,11.228 42.039,11.312 41.711,11.418 41.619,11.544 41.513,11.589 41.441,11.765    41.419,11.787 41.388,11.862 41.354,11.91 41.315,11.943 41.313,11.944 41.295,11.962 41.213,12.038 41.108,12.195 41.108,12.197    41.064,12.236 40.96,12.394 40.834,12.811 40.805,12.855 40.792,12.897 40.771,12.924 40.758,12.967 40.707,13.022 40.652,13.132    40.568,13.49 40.567,13.492 40.55,13.546 40.501,13.645 40.332,14.373 40.332,14.388 40.332,14.443 40.33,14.455 40.286,14.829    40.287,14.854 40.288,14.975 40.193,15.488 40.193,15.511 40.196,15.763 40.196,15.768 40.199,15.963 40.2,16.209 40.201,16.216    40.203,16.332 40.176,16.502 40.155,16.755 40.156,16.771  "></polygon><polygon points="30.779,46.772 30.795,46.768 30.944,46.605 31.106,46.438 31.123,46.429 31.286,46.263 31.606,45.994    31.762,45.786 31.763,45.783 31.819,45.738 32.284,45.158 32.288,45.137 32.637,44.701 32.666,44.575 32.673,44.565 32.714,44.44    32.827,44.317 32.918,44.134 32.979,44.051 33.121,43.621 33.287,43.329 33.322,43.111 33.384,42.988 33.385,42.987 33.482,42.787    33.483,42.786 33.638,42.471 33.812,41.726 33.812,41.704 33.813,41.696 33.823,41.603 33.836,41.581 33.882,41.267 33.901,41.017    33.901,40.973 33.896,40.782 33.892,40.485 33.891,40.461 33.885,40.261 33.877,40.242 33.825,39.861 33.786,39.717 33.74,39.502    33.69,39.421 33.646,39.204 33.545,38.963 33.255,38.609 33.173,38.415 33.102,38.345 33.071,38.306 33.018,38.15 33.014,38.132    33.009,38.126 32.96,37.98 32.807,37.784 32.722,37.714 32.721,37.713 32.702,37.679 32.678,37.652 32.644,37.604 32.597,37.558    32.563,37.457 32.365,37.317 32.11,37.044 31.944,36.998 31.929,36.982 31.739,36.873 31.603,36.773 31.352,36.692 31.133,36.536    30.968,36.487 30.926,36.481 30.701,36.349 30.437,36.301 30.146,36.273 30.12,36.273 29.919,36.276 29.917,36.276 29.718,36.279    29.516,36.282 29.507,36.283 29.366,36.285 29.072,36.287 29.066,36.287 28.866,36.289 28.666,36.291 28.418,36.291 28.218,36.292    28.212,36.292 28.011,36.293 27.808,36.293 27.807,36.293 27.554,36.295 27.548,36.295 27.346,36.296 27.341,36.299 26.956,36.349    26.95,36.35 26.944,36.35 26.645,36.352 26.638,36.354 26.22,36.456 26.133,36.456 26.128,36.458 25.727,36.511 25.618,36.54    25.453,36.566 25.257,36.569 25.24,36.575 24.751,36.662 24.689,36.682 24.683,36.683 24.673,36.688 24.43,36.71 24.136,36.765    24.082,36.797 23.9,36.829 23.842,36.849 23.84,36.849 23.538,36.853 23.53,36.856 23.16,36.904 22.97,36.955 22.937,36.976    22.852,36.991 22.771,37.018 22.578,37.036 22.283,37.086 22.257,37.102 22.148,37.116 22.028,37.147 21.683,37.207 21.443,37.29    21.291,37.332 21.185,37.402 20.98,37.451 20.931,37.479 20.927,37.479 20.71,37.526 20.59,37.6 20.327,37.664 20.278,37.69    20.234,37.701 20.158,37.752 20.135,37.764 20.123,37.774 19.918,37.825 19.725,37.928 19.679,37.97 19.62,37.987 19.376,38.141    19.347,38.171 19.231,38.25 19.118,38.296 18.885,38.346 18.789,38.389 18.732,38.438 18.28,38.562 18.269,38.575 18.188,38.59    18.092,38.628 17.985,38.713 17.563,38.83 17.404,38.993 17.297,39.039 17.264,39.118 17.253,39.123 17.201,39.172 17.2,39.177    17.195,39.179 17.174,39.23 17.099,39.261 16.979,39.294 16.954,39.319 16.945,39.323 16.941,39.331 16.934,39.335 16.93,39.345    16.903,39.355 16.896,39.374 16.878,39.38 16.872,39.394 16.832,39.41 16.808,39.454 16.766,39.471 16.759,39.486 16.703,39.509    16.672,39.584 16.567,39.626 16.517,39.675 16.511,39.687 16.498,39.692 16.472,39.754 16.402,39.782 16.352,39.832 16.346,39.843    16.332,39.848 16.296,39.936 16.293,39.937 16.287,39.953 16.177,39.998 16.122,40.132 15.956,40.31 15.941,40.314 15.85,40.408    15.849,40.409 15.798,40.457 15.796,40.46 15.792,40.462 15.786,40.473 15.771,40.49 15.654,40.538 15.621,40.617 15.515,40.66    15.509,40.675 15.493,40.682 15.446,40.792 15.396,40.812 15.392,40.822 15.383,40.826 15.334,40.944 15.282,40.965 15.28,40.97    15.275,40.972 15.183,41.198 15.163,41.224 14.994,41.408 14.94,41.518 14.91,41.645 14.909,41.646 14.816,41.967 14.79,42.021    14.733,42.256 14.679,42.451 14.679,42.456 14.679,42.49 14.627,42.705 14.627,42.738 14.53,42.881 14.482,42.929 14.345,43.13    14.315,43.164 14.291,43.211 14.249,43.273 14.159,43.37 14.104,43.481 14.091,43.531 14.055,43.586 14.004,43.84 13.905,43.983    13.904,43.988 13.902,43.991 13.86,44.202 13.851,44.23 13.8,44.286 13.744,44.397 13.733,44.445 13.697,44.498 13.665,44.662    13.642,44.708 13.61,44.842 13.553,44.92 13.499,45.084 13.439,45.454 13.413,45.564 13.361,45.984 13.361,46.037 13.26,46.542    13.26,46.839 13.209,47.25 13.209,47.272 13.196,47.309 13.11,47.836 13.107,47.854 13.106,48.107 13.106,48.112 13.106,48.718    13.105,48.969 13.104,49.223 13.104,49.227 13.229,49.874 13.253,49.934 13.253,49.979 13.253,49.987 13.382,50.645 13.479,50.886    13.479,50.887 13.488,50.933 13.541,51.021 13.542,51.027 13.592,51.272 13.739,51.491 13.747,51.529 14.124,52.085 14.277,52.236    14.33,52.257 14.332,52.26 14.352,52.266 14.383,52.279 14.434,52.334 14.444,52.352 14.475,52.381 14.536,52.447 14.695,52.552    14.854,52.599 14.904,52.651 15.063,52.755 15.126,52.775 15.166,52.804 15.254,52.831 15.355,52.899 15.416,52.917 15.456,52.946    15.509,52.962 15.637,53.049 16.31,53.187 16.321,53.187 16.563,53.234 16.816,53.234 16.827,53.234 16.926,53.233 17.178,53.231    17.183,53.231 17.385,53.231 17.389,53.231 17.59,53.23 17.599,53.226 18.146,53.133 18.285,53.086 18.368,53.024 18.4,53.016    18.522,52.992 18.598,52.946 18.707,52.891 18.738,52.862 18.798,52.825 18.98,52.795 19.149,52.699 19.229,52.672 19.307,52.613    19.729,52.471 19.928,52.322 19.928,52.32 19.929,52.32 20.006,52.263 20.073,52.228 20.16,52.148 20.263,52.117 20.407,52.019    20.445,51.978 20.468,51.97 20.532,51.954 20.605,51.906 20.782,51.87 21.084,51.665 21.089,51.664 21.295,51.523 21.54,51.465    21.733,51.368 21.738,51.364 21.747,51.362 21.94,51.265 22.016,51.195 22.027,51.188 22.121,51.16 22.268,51.063 22.275,51.054    22.287,51.053 22.427,51.006 22.449,50.989 22.557,50.953 22.664,50.873 22.781,50.84 23.027,50.691 23.099,50.618 23.173,50.593    23.248,50.536 23.315,50.502 23.358,50.462 23.64,50.383 23.885,50.235 23.954,50.163 24.027,50.139 24.102,50.083 24.166,50.051    24.172,50.046 24.181,50.044 24.475,49.897 24.607,49.776 24.742,49.73 24.815,49.675 24.982,49.593 25.112,49.473 25.245,49.429    25.323,49.371 25.426,49.319 25.615,49.243 25.667,49.201 25.753,49.18 26.047,49.033 26.05,49.03 26.058,49.028 26.25,48.931    26.253,48.927 26.261,48.926 26.392,48.86 26.417,48.853 26.456,48.827 26.555,48.778 26.564,48.769 26.768,48.721 26.896,48.657    26.916,48.65 26.95,48.628 27.062,48.572 27.068,48.566 27.105,48.557 27.286,48.527 27.596,48.351 27.605,48.347 27.629,48.344    27.82,48.297 27.888,48.253 28.056,48.22 28.152,48.181 28.25,48.161 28.44,48.048 28.802,47.946 29.048,47.799 29.097,47.749    29.398,47.648 29.598,47.499 29.602,47.493 29.606,47.491 29.726,47.401 30.062,47.288 30.26,47.139 30.26,47.138 30.261,47.138    30.459,46.988 30.459,46.988 30.461,46.988 30.589,46.892 30.769,46.784  "></polygon><polygon points="25.862,79.09 25.862,79.081 25.855,78.802 25.851,78.446 25.851,78.446 25.847,78.094 25.843,77.666    25.843,77.666 25.843,77.662 25.837,77.23 25.837,77.219 25.833,76.94 25.829,76.515 25.825,76.5 25.794,76.14 25.751,75.899    25.748,75.579 25.748,75.572 25.743,75.143 25.74,75.128 25.716,74.822 25.665,74.483 25.661,74.133 25.657,74.113 25.625,73.776    25.624,73.7 25.624,73.698 25.623,73.629 25.625,73.623 25.688,73.08 25.688,73.031 25.685,72.827 25.682,72.553 25.679,72.269    25.679,72.266 25.676,71.98 25.676,71.98 25.674,71.693 25.674,71.69 25.673,71.479 25.671,71.198 25.67,70.911 25.67,70.911    25.669,70.554 25.669,70.197 25.669,70.191 25.667,69.906 25.667,69.55 25.667,69.536 25.666,69.325 25.665,68.971 25.665,68.97    25.665,68.686 25.665,68.327 25.665,68.324 25.664,67.965 25.664,67.961 25.591,67.387 25.591,67.311 25.591,67.309 25.589,66.948    25.588,66.942 25.56,66.584 25.487,66.129 25.368,65.785 25.366,65.473 25.366,65.471 25.365,65.112 25.362,65.096 25.288,64.527    25.219,64.257 25.215,64.252 25.214,64.237 25.214,64.237 25.214,64.233 25.206,64.194 25.136,63.663 25.136,63.66 25.116,63.566    25.06,63.236 25.059,63.089 25.053,63.06 24.983,62.521 24.982,62.518 24.981,62.512 24.981,62.512 24.981,62.511 24.979,62.497    24.906,61.939 24.836,61.667 24.834,61.664 24.832,61.649 24.809,61.563 24.755,61.146 24.684,60.875 24.647,60.818 24.621,60.67    24.594,60.592 24.592,60.545 24.582,60.501 24.536,60.106 24.466,59.804 24.386,59.399 24.27,59.203 24.16,58.791 24.115,58.712    24.094,58.638 23.886,58.341 23.774,58.01 23.682,57.886 23.66,57.851 23.66,57.849 23.583,57.72 23.465,57.602 23.277,57.322    22.993,57.132 22.894,57.032 22.76,56.833 22.754,56.829 22.75,56.824 22.491,56.65 22.314,56.393 22.17,56.25 22.161,56.244    22.156,56.235 22.101,56.183 21.956,55.969 21.498,55.662 21.379,55.554 21.235,55.483 21.234,55.483 21.076,55.405 21.073,55.405    20.887,55.279 20.626,55.227 20.599,55.208 20.439,55.175 20.383,55.137 19.51,54.96 19.505,54.96 19.368,54.96 19.241,54.96    19.179,54.96 19.15,54.96 19.139,54.96 18.995,54.96 18.975,54.96 18.914,54.962 18.779,54.962 18.779,54.962 18.636,54.963    18.635,54.963 18.425,54.963 18.286,54.963 18.28,54.963 18.142,54.963 18.005,54.963 17.865,54.963 17.728,54.962 17.657,54.962    17.647,54.96 17.647,54.96 17.503,54.96 17.494,54.96 16.787,55.104 16.742,55.104 16.737,55.104 15.867,55.278 15.866,55.278    15.864,55.279 15.688,55.397 15.582,55.42 14.935,55.851 14.928,55.853 14.214,56.334 13.925,56.621 13.906,56.65 13.843,56.691    13.728,56.816 13.505,56.966 13.433,57.036 13.43,57.039 13.428,57.042 13.283,57.185 13.28,57.188 13.277,57.189 13.206,57.262    12.901,57.711 12.841,57.77 12.816,57.807 12.781,57.846 12.756,57.896 12.543,58.213 12.428,58.338 12.349,58.495 12.308,58.672    12.23,58.775 12.153,59.006 12.153,59.009 12.069,59.133 12.06,59.188 12.055,59.193 12.039,59.248 12.014,59.283 11.982,59.373    11.855,59.562 11.813,59.773 11.71,59.925 11.647,60.235 11.567,60.352 11.474,60.814 11.437,60.862 11.385,61.021 11.352,61.07    11.171,61.943 11.171,62.03 11.025,62.735 11.025,62.88 11.025,62.891 11.025,63.382 11.017,63.435 11.002,63.454 10.926,63.687    10.809,64.402 10.809,64.834 10.809,64.84 10.809,64.969 10.739,65.397 10.737,65.408 10.737,65.415 10.593,66.126 10.592,66.18    10.383,66.369 10.313,66.615 10.18,66.795 10.15,66.885 10.083,67.021 10.001,67.108 9.93,67.251 9.929,67.253 9.911,67.289    9.832,67.404 9.743,67.469 9.704,67.593 9.516,67.865 9.482,68.027 9.437,68.094 9.436,68.097 9.435,68.1 9.411,68.208    9.291,68.388 9.291,68.391 9.289,68.394 9.277,68.448 9.222,68.532 9.22,68.539 9.216,68.547 9.194,68.652 9.133,68.776    9.132,68.779 9.007,68.965 9.007,68.967 9.006,68.968 8.902,69.48 8.861,69.541 8.861,69.542 8.86,69.544 8.809,69.8 8.79,69.829    8.771,69.919 8.738,69.965 8.661,70.196 8.64,70.331 8.637,70.339 8.621,70.397 8.575,70.465 8.544,70.617 8.505,70.675    8.504,70.679 8.502,70.682 8.461,70.881 8.369,71.311 8.295,71.521 8.254,71.758 8.254,71.758 8.254,71.758 8.253,71.761    8.174,71.915 8.16,71.976 8.114,72.042 8.05,72.357 8.031,72.413 8.03,72.416 8.029,72.419 8.006,72.491 7.97,72.546 7.807,73.335    7.652,74.071 7.651,74.281 7.649,74.42 7.649,74.421 7.646,74.635 7.644,74.852 7.644,74.863 7.644,74.863 7.643,75.079    7.643,75.085 7.642,75.296 7.64,75.507 7.64,75.517 7.64,75.519 7.638,75.729 7.638,75.869 7.635,76.085 7.635,76.087    7.633,76.375 7.633,76.392 7.771,77.073 7.771,77.08 7.771,77.085 7.771,77.085 7.769,77.303 7.769,77.328 7.829,77.839    7.896,78.112 7.922,78.153 7.939,78.274 8.006,78.477 8.08,78.581 8.127,78.778 8.142,78.811 8.218,79.292 8.26,79.418    8.313,79.637 8.341,79.681 8.361,79.809 8.402,79.931 8.454,80.143 8.483,80.188 8.505,80.322 8.531,80.402 8.634,80.902    8.894,81.288 8.905,81.311 8.908,81.314 8.91,81.323 8.977,81.455 9.076,81.563 9.159,81.688 9.187,81.81 9.252,81.942    9.325,82.024 9.356,82.134 9.683,82.437 10.188,82.999 10.41,83.149 10.535,83.188 10.764,83.345 10.831,83.359 10.891,83.416    11.044,83.497 11.214,83.538 11.318,83.617 11.513,83.687 11.547,83.854 11.621,83.967 11.67,84.104 11.89,84.37 11.94,84.446    11.961,84.486 11.987,84.517 12.023,84.571 12.083,84.631 12.383,85.081 12.506,85.205 12.806,85.658 13.09,85.946 13.304,86.165    13.514,86.309 13.634,86.444 13.804,86.561 13.911,86.644 14.01,86.745 14.748,87.253 14.762,87.256 14.77,87.262 14.918,87.323    14.929,87.331 14.929,87.331 14.931,87.331 15.152,87.482 15.29,87.523 15.542,87.696 16.436,87.88 16.443,87.88 16.458,87.884    16.495,87.891 16.509,87.897 16.848,87.973 17.35,88.027 17.638,88.027 17.645,88.027 17.86,88.027 17.871,88.024 18.43,87.953    18.702,87.884 18.705,87.883 18.718,87.881 18.989,87.813 19.04,87.781 19.18,87.758 19.379,87.689 19.425,87.656 19.524,87.637    19.868,87.498 19.99,87.399 20.069,87.379 20.186,87.304 20.296,87.271 20.321,87.254 20.56,87.196 20.834,87.06 20.84,87.053    20.852,87.05 21.124,86.911 21.127,86.909 21.133,86.908 21.407,86.771 21.411,86.767 21.418,86.766 21.605,86.671 21.88,86.561    21.976,86.484 22.123,86.447 22.571,86.038 22.661,85.979 22.78,85.848 22.784,85.844 23.013,85.69 23.111,85.591 23.27,85.473    23.361,85.363 23.515,85.261 23.658,85.118 23.81,84.894 23.943,84.771 24.087,84.556 24.088,84.556 24.112,84.519 24.168,84.463    24.291,84.278 24.51,84.025 24.575,83.856 24.659,83.73 24.697,83.541 24.761,83.376 24.812,83.32 24.9,83.141 24.967,83.037    25.004,82.909 25.1,82.802 25.245,82.498 25.3,82.262 25.317,82.233 25.344,82.143 25.41,82.041 25.416,82.013 25.5,81.888    25.679,81 25.679,80.963 25.679,80.894 25.706,80.801 25.807,80.136 25.807,80.101 25.806,80.018 25.811,79.995 25.868,79.487    25.867,79.448  "></polygon><polygon points="64.75,77.999 64.747,77.569 64.747,77.569 64.747,77.563 64.741,77.134 64.731,77.088 64.66,76.555 64.657,76.406    64.649,76.371 64.597,75.907 64.52,75.565 64.443,75.441 64.379,75.133 64.337,75.037 64.197,74.461 64.131,74.367 64.11,74.29    63.96,74.021 63.954,74.015 63.951,74.003 63.919,73.947 63.904,73.898 63.881,73.866 63.867,73.785 63.486,73.12 63.261,72.846    63.139,72.75 63.039,72.61 62.813,72.404 62.123,71.972 61.96,71.939 61.891,71.894 61.654,71.83 61.566,71.819 61.54,71.802    61.396,71.772 61.291,71.74 60.963,71.54 60.676,71.481 60.674,71.479 60.611,71.468 60.545,71.437 60.238,71.371 60.108,71.29    59.806,71.225 59.349,71.177 59.29,71.177 58.937,71.187 58.937,71.187 58.58,71.194 58.579,71.194 58.3,71.2 57.947,71.206    57.591,71.212 57.562,71.218 57.163,71.261 56.816,71.334 56.648,71.438 56.328,71.517 56.172,71.545 56.096,71.587 55.836,71.631    55.421,71.775 55.417,71.778 55.404,71.78 54.988,71.925 54.945,71.957 54.854,71.975 54.612,72.074 54.214,72.193 54.008,72.338    53.698,72.425 53.382,72.622 52.892,72.909 52.889,72.912 52.886,72.914 52.393,73.201 52.332,73.261 52.263,73.283 51.952,73.495    51.494,73.729 51.489,73.733 51.481,73.735 50.918,74.023 50.871,74.066 50.807,74.084 50.314,74.371 50.23,74.458 50.14,74.487    49.741,74.776 49.195,75.082 49.182,75.096 49.162,75.104 48.686,75.38 48.685,75.38 48.049,75.737 48.026,75.758 47.997,75.767    47.408,76.117 47.407,76.117 46.914,76.403 46.881,76.437 46.837,76.45 46.395,76.729 45.878,76.961 45.841,76.993 45.781,77.007    45.219,77.292 45.18,77.328 45.127,77.343 44.581,77.65 44.169,77.833 44.156,77.843 44.133,77.848 43.624,78.08 43.248,78.195    43.221,78.214 43.152,78.226 42.522,78.448 42.461,78.494 42.345,78.519 41.973,78.689 41.631,78.797 41.08,78.949 41.058,78.964    40.994,78.974 40.753,79.051 40.667,79.055 40.107,79.069 40.105,79.069 40.078,79.069 39.732,79.084 39.472,79.093 39.343,79.006    39.34,79.006 39.336,79.003 39.333,79.003 39.127,78.863 39.126,78.863 39.125,78.863 39.07,78.852 39.043,78.834 39.004,78.797    38.846,78.718 38.774,78.701 38.694,78.648 37.711,78.448 37.649,78.448 37.589,78.448 37.572,78.448 37.566,78.448 37.422,78.448    37.416,78.448 37.287,78.448 37.229,78.446 37.208,78.446 37.207,78.446 37.073,78.446 37.013,78.446 36.997,78.446 36.996,78.446    36.854,78.446 36.639,78.445 36.631,78.445 36.295,78.513 35.694,78.393 35.57,78.396 35.563,78.396 35.241,78.303 35.201,78.266    35.104,78.24 35.013,78.193 34.856,78.176 34.851,78.176 34.542,78.097 34.402,78.132 34.398,78.13 34.384,78.138 34.327,78.152    34.325,78.152 33.914,78.258 33.955,78.216 33.926,78.228 33.889,78.264 33.884,78.266 33.799,78.344 33.723,78.369 33.634,78.435    33.63,78.44 33.55,78.474 33.522,78.539 33.484,78.558 33.412,78.646 33.379,78.735 33.257,78.881 33.116,79.464 33.126,79.507    33.095,79.608 33.113,79.658 32.757,79.896 32.754,79.901 32.75,79.904 32.696,79.985 32.612,80.04 32.553,80.13 32.46,80.189    32.266,80.479 32.249,80.495 32.243,80.513 32.207,80.566 32.162,80.598 32.09,80.67 31.891,80.968 31.812,81.041 31.788,81.122    31.759,81.165 31.632,81.305 31.554,81.462 31.537,81.532 31.485,81.609 31.443,81.813 31.347,81.955 31.346,81.963 31.341,81.97    31.331,82.017 31.271,82.105 31.271,82.106 31.27,82.109 31.22,82.355 31.204,82.378 31.074,82.984 31.045,83.045 31.028,83.114    30.976,83.192 30.776,84.182 30.776,84.974 30.776,84.98 30.777,85.192 30.777,85.901 30.776,86.032 30.774,86.175 30.774,86.191    30.774,86.335 30.774,86.551 30.774,86.558 30.909,87.379 30.977,87.578 31.042,87.666 31.054,87.74 31.077,87.811 31.124,88.097    31.19,88.295 31.272,88.405 31.331,88.695 31.332,88.697 31.333,88.7 31.434,88.851 31.478,89.063 31.534,89.146 31.552,89.223    31.617,89.353 31.736,89.483 31.919,89.754 31.927,89.78 31.982,89.863 31.983,89.87 32.049,90 32.052,90.003 32.055,90.011    32.119,90.14 32.204,90.232 32.239,90.354 32.632,90.714 32.742,90.878 32.886,91.021 33.101,91.235 33.102,91.236 33.102,91.238    33.169,91.305 33.317,91.525 33.462,91.67 33.75,91.864 33.769,91.885 33.79,91.891 33.966,92.01 34.106,92.14 34.246,92.208    34.767,92.684 34.803,92.694 34.829,92.717 35.041,92.822 35.12,92.877 35.261,93.005 35.412,93.08 35.414,93.082 35.572,93.159    35.703,93.189 35.793,93.251 35.927,93.372 36.087,93.448 36.211,93.478 36.311,93.544 36.577,93.725 36.579,93.725 36.58,93.727    37.049,93.82 37.225,93.939 37.646,94.023 37.728,94.06 37.937,94.112 38.063,94.153 38.43,94.212 38.448,94.226 38.997,94.336    39.016,94.345 39.321,94.421 39.928,94.496 39.937,94.499 40.225,94.499 40.23,94.499 40.366,94.499 40.899,94.564 40.91,94.567    41.182,94.601 42.1,94.788 42.314,94.788 42.316,94.788 42.604,94.788 42.607,94.788 42.612,94.788 42.671,94.788 42.954,94.834    43.195,94.881 43.281,94.89 43.831,95 43.846,95 44.054,94.998 44.982,94.998 45.269,94.998 45.271,94.998 45.848,94.998    45.85,94.998 46.209,94.998 46.211,94.998 46.723,94.947 47.066,94.876 47.119,94.855 47.14,94.854 47.216,94.854 47.79,94.78    47.937,94.78 48.152,94.78 49.034,94.603 49.398,94.557 49.605,94.505 49.91,94.443 49.962,94.423 50.047,94.412 50.317,94.344    50.668,94.19 50.851,94.152 50.903,94.133 50.987,94.121 51.258,94.052 51.441,93.971 51.599,93.939 51.941,93.802 52.021,93.738    52.151,93.707 52.179,93.692 52.196,93.688 52.552,93.532 52.724,93.491 52.898,93.401 53.162,93.295 53.168,93.291 53.183,93.288    53.449,93.179 53.599,93.129 53.649,93.092 53.759,93.069 54.102,92.932 54.176,92.869 54.302,92.84 54.576,92.703 54.583,92.696    54.597,92.692 54.711,92.634 54.759,92.618 54.791,92.593 54.87,92.555 54.904,92.522 55.094,92.477 55.368,92.338 55.374,92.334    55.384,92.331 55.658,92.192 55.851,92.017 56.045,91.951 56.328,91.739 56.331,91.734 56.335,91.733 56.616,91.521 56.619,91.518    56.621,91.518 56.721,91.442 56.807,91.398 56.999,91.224 57.195,91.157 57.477,90.945 57.48,90.94 57.485,90.939 57.768,90.726    57.79,90.699 57.836,90.675 58.057,90.495 58.274,90.362 58.524,90.107 58.763,89.906 58.858,89.847 58.979,89.722 58.988,89.715    58.996,89.705 59.014,89.687 59.34,89.461 59.411,89.391 59.507,89.33 59.736,89.092 60.162,88.747 60.362,88.489 60.618,88.228    60.73,88.058 60.848,87.959 61.064,87.662 61.08,87.612 61.132,87.564 61.363,87.21 61.583,86.931 61.766,86.599 61.855,86.5    62.005,86.188 62.133,85.991 62.404,85.656 62.544,85.411 62.639,85.313 62.927,84.795 62.964,84.657 63.042,84.56 63.196,84.188    63.327,83.965 63.377,83.775 63.483,83.64 63.64,83.239 63.841,82.878 63.887,82.699 63.984,82.576 64.128,82.198 64.177,81.931    64.266,81.661 64.311,81.309 64.399,80.979 64.399,80.979 64.542,80.456 64.564,80.299 64.598,80.2 64.666,79.754 64.693,79.392    64.692,79.365 64.688,79.063 64.726,78.826 64.756,78.455 64.756,78.432 64.75,78.001  "></polygon><polygon points="92.367,65.256 92.355,64.91 92.344,64.412 92.332,64.355 92.279,63.912 92.25,63.797 92.244,63.602 92.217,63.48    92.144,62.993 92.063,62.727 92.031,62.683 92.014,62.575 91.905,62.288 91.849,62.057 91.72,61.854 91.619,61.476 91.52,61.299    91.403,61.036 91.281,60.894 91.228,60.717 90.874,60.414 90.584,60.073 90.549,60.062 90.433,59.899 90.136,59.62 89.887,59.463    89.774,59.348 89.542,59.209 89.334,59.152 89.188,59.037 89.005,58.971 88.967,58.947 88.854,58.916 88.808,58.898 88.769,58.892    88.473,58.809 88.228,58.666 87.974,58.623 87.872,58.594 87.268,58.506 87.216,58.507 86.932,58.513 86.932,58.513 86.646,58.521    86.46,58.562 86.236,58.602 86.084,58.603 85.268,58.779 85.189,58.832 85.121,58.851 85.05,58.889 84.985,58.904 84.899,58.962    84.707,59.002 84.364,59.147 84.358,59.152 84.346,59.153 84.003,59.299 83.869,59.409 83.697,59.461 83.584,59.532 83.347,59.605    83.135,59.754 82.834,59.843 82.613,59.982 82.247,60.148 81.993,60.366 81.772,60.446 81.64,60.557 81.397,60.665 81.148,60.878    80.931,60.957 80.647,61.188 80.294,61.43 80.291,61.434 80.287,61.436 79.905,61.696 79.582,61.897 79.545,61.938 79.502,61.951    79.081,62.239 78.97,62.363 78.771,62.5 78.599,62.68 78.333,62.878 78.242,62.987 78.095,63.089 77.981,63.207 77.833,63.301    77.647,63.495 77.323,63.759 77.105,64.04 76.828,64.325 76.825,64.329 76.822,64.33 76.54,64.625 76.367,64.887 76.257,64.998    76.163,65.162 76.048,65.281 75.922,65.473 75.815,65.571 75.646,65.833 75.481,66.047 75.2,66.334 75.114,66.465 75.026,66.542    74.832,66.81 74.568,67.146 74.534,67.245 74.429,67.35 74.26,67.642 74.122,67.833 73.857,68.175 73.849,68.199 73.819,68.226    73.61,68.518 73.61,68.518 73.398,68.816 73.348,68.968 73.225,69.11 73.09,69.403 73.089,69.403 72.997,69.605 72.929,69.718    72.927,69.718 72.877,69.798 72.859,69.819 72.848,69.847 72.785,69.945 72.735,70.124 72.453,70.528 72.391,70.742 72.391,70.742    72.379,70.774 72.19,71.003 72.129,71.152 72.129,71.154 72.067,71.302 72.067,71.305 72.065,71.306 72.063,71.314 72.036,71.446    72.025,71.462 71.902,72.074 71.858,72.208 71.97,72.816 71.99,72.868 72.076,72.977 71.894,73.129 71.78,73.28 71.746,73.314    71.602,73.423 71.309,73.771 71.021,74.031 70.874,74.251 70.874,74.251 70.763,74.417 70.593,74.644 70.592,74.646 70.479,74.795    70.392,74.882 70.053,75.386 69.925,75.525 69.873,75.627 69.795,75.733 69.734,75.919 69.565,76.103 69.414,76.404 69.376,76.568    69.227,76.905 69.217,76.945 69.206,76.966 69.205,76.967 69.055,77.269 69.008,77.468 68.924,77.582 68.846,77.816 68.832,77.902    68.796,77.983 68.787,78.021 68.766,78.061 68.728,78.223 68.58,78.559 68.51,78.84 68.509,78.841 68.437,79.127 68.437,79.13    68.359,79.435 68.283,80.037 68.281,80.049 68.28,80.267 68.28,80.27 68.28,80.486 68.28,80.486 68.28,80.771 68.28,80.985    68.28,80.986 68.278,81.272 68.277,81.485 68.277,81.497 68.41,82.308 68.476,82.506 68.476,82.508 68.478,82.514 68.513,82.619    68.56,82.815 68.648,83.021 68.684,83.193 68.796,83.364 68.898,83.6 68.987,83.7 69.489,84.46 69.629,84.605 69.632,84.606    69.633,84.608 69.768,84.748 69.832,84.813 70.658,85.391 70.771,85.414 70.827,85.458 71.048,85.533 71.173,85.618 71.331,85.65    71.54,85.743 71.846,85.818 72.441,85.893 72.459,85.896 72.521,85.896 73.111,85.969 73.115,85.971 73.404,85.972 73.407,85.972    73.41,85.972 73.688,85.971 73.896,85.972 73.907,85.972 74.27,85.972 74.27,85.972 74.274,85.972 74.49,85.972 74.493,85.972    75.009,85.919 75.105,85.899 75.212,85.898 75.215,85.898 75.729,85.847 76.071,85.776 76.222,85.717 76.4,85.689 76.502,85.653    76.595,85.63 76.926,85.574 77.005,85.546 77.146,85.528 77.414,85.461 77.778,85.302 77.953,85.259 78.228,85.122 78.321,85.037    78.628,84.873 78.638,84.864 78.683,84.847 78.735,84.804 79.376,84.432 79.436,84.382 79.627,84.266 79.693,84.196 79.855,84.11    79.867,84.102 79.911,84.083 79.986,84.023 80.5,83.748 80.781,83.535 80.807,83.506 80.853,83.479 81.119,83.263 81.353,83.105    81.487,82.955 81.737,82.785 81.876,82.646 81.969,82.59 82.056,82.5 82.256,82.387 82.607,82.098 82.688,81.996 82.813,81.911    83.071,81.649 83.321,81.446 83.336,81.428 83.359,81.413 83.787,81.053 83.853,80.968 83.954,80.896 84.137,80.713 84.361,80.561    84.495,80.414 84.741,80.246 85.099,79.884 85.183,79.76 85.276,79.682 85.481,79.426 85.661,79.245 86.004,78.955 86.068,78.871    86.172,78.802 86.531,78.439 86.598,78.339 86.68,78.274 87.04,77.837 87.056,77.813 87.07,77.801 87.188,77.65 87.332,77.535    87.604,77.19 87.843,76.972 87.997,76.734 88.182,76.548 88.345,76.3 88.486,76.171 88.775,75.728 88.79,75.676 88.835,75.632    89.021,75.311 89.272,74.924 89.313,74.783 89.418,74.667 89.567,74.358 89.766,74.052 89.78,74.002 89.823,73.958 90.041,73.582    90.117,73.298 90.252,73.111 90.294,72.976 90.396,72.818 90.436,72.681 90.54,72.566 90.757,72.117 90.801,71.923 90.88,71.815    91.016,71.383 91.019,71.381 91.161,70.931 91.169,70.876 91.186,70.854 91.325,70.351 91.325,70.349 91.428,69.977 91.581,69.608    91.634,69.336 91.749,68.973 91.79,68.616 91.858,68.404 91.867,68.347 91.883,68.323 92.025,67.801 92.05,67.622 92.086,67.514    92.149,67.068 92.214,66.622 92.217,66.59 92.223,66.577 92.282,66.094 92.344,65.667 92.367,65.331  "></polygon></g></g></svg><svg id="name" viewBox="0 0 350.794921875 43.84375" width="350" height="43.74439749007555" style="fill: rgb(255, 191, 7);" x="92" y="6.555930717123104" data-v-8d8ae3dd=""><rect x="0" y="0" width="100%" height="100%" fill="none" data-v-8d8ae3dd=""></rect><g data-v-8d8ae3dd=""><path xmlns="http://www.w3.org/2000/svg" d="M6.74 1.80L6.74 29.09L21.05 29.09L21.05 34.50L0 34.50L0 1.80L6.74 1.80ZM35.67 34.95L35.67 34.95Q30.32 34.95 26.96 31.67Q23.61 28.39 23.61 22.93L23.61 22.93L23.61 22.30Q23.61 18.64 25.02 15.76Q26.44 12.87 29.03 11.31Q31.63 9.75 34.95 9.75L34.95 9.75Q39.94 9.75 42.80 12.89Q45.66 16.04 45.66 21.81L45.66 21.81L45.66 24.46L30.19 24.46Q30.50 26.84 32.09 28.28Q33.67 29.72 36.09 29.72L36.09 29.72Q39.85 29.72 41.96 27.00L41.96 27.00L45.15 30.57Q43.69 32.64 41.19 33.79Q38.70 34.95 35.67 34.95ZM34.93 15.00L34.93 15.00Q33.00 15.00 31.79 16.31Q30.59 17.61 30.25 20.04L30.25 20.04L39.28 20.04L39.28 19.52Q39.24 17.36 38.12 16.18Q36.99 15.00 34.93 15.00ZM69.99 34.50L63.43 34.50Q62.98 33.62 62.78 32.32L62.78 32.32Q60.42 34.95 56.65 34.95L56.65 34.95Q53.08 34.95 50.73 32.88Q48.38 30.82 48.38 27.67L48.38 27.67Q48.38 23.81 51.24 21.74Q54.11 19.68 59.52 19.65L59.52 19.65L62.51 19.65L62.51 18.26Q62.51 16.58 61.64 15.57Q60.78 14.55 58.92 14.55L58.92 14.55Q57.28 14.55 56.34 15.34Q55.41 16.13 55.41 17.50L55.41 17.50L48.92 17.50Q48.92 15.39 50.22 13.59Q51.53 11.79 53.91 10.77Q56.29 9.75 59.25 9.75L59.25 9.75Q63.74 9.75 66.38 12.01Q69.02 14.26 69.02 18.35L69.02 18.35L69.02 28.88Q69.04 32.34 69.99 34.12L69.99 34.12L69.99 34.50ZM58.06 29.99L58.06 29.99Q59.50 29.99 60.71 29.35Q61.92 28.71 62.51 27.63L62.51 27.63L62.51 23.45L60.08 23.45Q55.21 23.45 54.89 26.82L54.89 26.82L54.87 27.20Q54.87 28.41 55.73 29.20Q56.58 29.99 58.06 29.99ZM87.75 10.04L87.67 16.28Q86.34 16.10 85.33 16.10L85.33 16.10Q81.65 16.10 80.50 18.60L80.50 18.60L80.50 34.50L74.01 34.50L74.01 10.20L80.14 10.20L80.32 13.09Q82.27 9.75 85.73 9.75L85.73 9.75Q86.81 9.75 87.75 10.04L87.75 10.04ZM90.65 10.20L96.76 10.20L96.96 13.00Q99.57 9.75 103.95 9.75L103.95 9.75Q107.81 9.75 109.70 12.02Q111.59 14.29 111.63 18.80L111.63 18.80L111.63 34.50L105.14 34.50L105.14 18.96Q105.14 16.89 104.24 15.96Q103.34 15.03 101.25 15.03L101.25 15.03Q98.51 15.03 97.14 17.36L97.14 17.36L97.14 34.50L90.65 34.50L90.65 10.20ZM133.26 10.20L137.69 25.67L140.88 10.20L147.14 10.20L140.94 34.50L135.51 34.50L130.90 19.20L126.30 34.50L120.88 34.50L114.69 10.20L120.95 10.20L124.12 25.65L128.57 10.20L133.26 10.20ZM157.20 10.20L157.20 34.50L150.69 34.50L150.69 10.20L157.20 10.20ZM150.31 3.91L150.31 3.91Q150.31 2.45 151.29 1.50Q152.26 0.56 153.95 0.56L153.95 0.56Q155.61 0.56 156.60 1.50Q157.59 2.45 157.59 3.91L157.59 3.91Q157.59 5.39 156.59 6.33Q155.59 7.28 153.95 7.28Q152.31 7.28 151.31 6.33Q150.31 5.39 150.31 3.91ZM163.83 4.22L170.32 4.22L170.32 10.20L174.48 10.20L174.48 14.96L170.32 14.96L170.32 27.09Q170.32 28.44 170.84 29.02Q171.35 29.60 172.81 29.60L172.81 29.60Q173.89 29.60 174.72 29.45L174.72 29.45L174.72 34.37Q172.81 34.95 170.79 34.95L170.79 34.95Q163.96 34.95 163.83 28.05L163.83 28.05L163.83 14.96L160.28 14.96L160.28 10.20L163.83 10.20L163.83 4.22ZM184.43 0L184.43 12.85Q187.01 9.75 190.92 9.75L190.92 9.75Q198.82 9.75 198.94 18.93L198.94 18.93L198.94 34.50L192.45 34.50L192.45 19.11Q192.45 17.03 191.55 16.03Q190.65 15.03 188.56 15.03L188.56 15.03Q185.71 15.03 184.43 17.23L184.43 17.23L184.43 34.50L177.94 34.50L177.94 0L184.43 0ZM217.44 24.44L217.44 1.80L224.18 1.80L224.18 24.44Q224.18 27.56 222.80 29.95Q221.42 32.34 218.90 33.65Q216.39 34.95 213.22 34.95L213.22 34.95Q208.03 34.95 205.14 32.31Q202.24 29.67 202.24 24.84L202.24 24.84L209.02 24.84Q209.02 27.25 210.03 28.39Q211.04 29.54 213.22 29.54L213.22 29.54Q215.15 29.54 216.30 28.21Q217.44 26.89 217.44 24.44L217.44 24.44ZM228.52 22.42L228.52 22.12Q228.52 18.51 229.91 15.68Q231.30 12.85 233.92 11.30Q236.54 9.75 240.00 9.75L240.00 9.75Q244.91 9.75 248.02 12.76Q251.14 15.77 251.50 20.93L251.50 20.93L251.54 22.60Q251.54 28.19 248.42 31.57Q245.30 34.95 240.04 34.95Q234.78 34.95 231.65 31.58Q228.52 28.21 228.52 22.42L228.52 22.42ZM235.01 22.60L235.01 22.60Q235.01 26.05 236.31 27.89Q237.61 29.72 240.04 29.72L240.04 29.72Q242.40 29.72 243.72 27.91Q245.05 26.10 245.05 22.12L245.05 22.12Q245.05 18.73 243.72 16.87Q242.40 15.00 240.00 15.00L240.00 15.00Q237.61 15.00 236.31 16.86Q235.01 18.71 235.01 22.60ZM268.70 27.78L268.70 27.78Q268.70 26.59 267.52 25.91Q266.34 25.22 263.74 24.68L263.74 24.68Q255.07 22.87 255.07 17.32L255.07 17.32Q255.07 14.08 257.75 11.92Q260.43 9.75 264.77 9.75L264.77 9.75Q269.40 9.75 272.17 11.93Q274.94 14.11 274.94 17.59L274.94 17.59L268.45 17.59Q268.45 16.19 267.55 15.28Q266.66 14.38 264.75 14.38L264.75 14.38Q263.11 14.38 262.21 15.12Q261.31 15.86 261.31 17.00L261.31 17.00Q261.31 18.08 262.33 18.74Q263.35 19.41 265.78 19.89Q268.21 20.37 269.87 20.98L269.87 20.98Q275.01 22.87 275.01 27.51L275.01 27.51Q275.01 30.84 272.16 32.89Q269.31 34.95 264.79 34.95L264.79 34.95Q261.74 34.95 259.37 33.86Q257.00 32.77 255.65 30.87Q254.30 28.97 254.30 26.77L254.30 26.77L260.46 26.77Q260.55 28.50 261.74 29.42Q262.93 30.34 264.93 30.34L264.93 30.34Q266.79 30.34 267.75 29.64Q268.70 28.93 268.70 27.78ZM290.38 34.95L290.38 34.95Q285.03 34.95 281.67 31.67Q278.31 28.39 278.31 22.93L278.31 22.93L278.31 22.30Q278.31 18.64 279.73 15.76Q281.14 12.87 283.74 11.31Q286.33 9.75 289.66 9.75L289.66 9.75Q294.64 9.75 297.51 12.89Q300.37 16.04 300.37 21.81L300.37 21.81L300.37 24.46L284.89 24.46Q285.21 26.84 286.79 28.28Q288.38 29.72 290.80 29.72L290.80 29.72Q294.55 29.72 296.66 27.00L296.66 27.00L299.85 30.57Q298.39 32.64 295.90 33.79Q293.41 34.95 290.38 34.95ZM289.63 15.00L289.63 15.00Q287.70 15.00 286.50 16.31Q285.30 17.61 284.96 20.04L284.96 20.04L293.99 20.04L293.99 19.52Q293.95 17.36 292.82 16.18Q291.70 15.00 289.63 15.00ZM325.93 22.24L325.93 22.57Q325.93 28.19 323.38 31.57Q320.83 34.95 316.50 34.95L316.50 34.95Q312.81 34.95 310.54 32.39L310.54 32.39L310.54 43.84L304.05 43.84L304.05 10.20L310.07 10.20L310.30 12.58Q312.66 9.75 316.45 9.75L316.45 9.75Q320.94 9.75 323.44 13.07Q325.93 16.40 325.93 22.24L325.93 22.24ZM319.44 22.10L319.44 22.10Q319.44 18.71 318.24 16.87Q317.04 15.03 314.75 15.03L314.75 15.03Q311.69 15.03 310.54 17.36L310.54 17.36L310.54 27.31Q311.74 29.72 314.79 29.72L314.79 29.72Q319.44 29.72 319.44 22.10ZM336.29 0L336.29 12.85Q338.87 9.75 342.78 9.75L342.78 9.75Q350.68 9.75 350.79 18.93L350.79 18.93L350.79 34.50L344.30 34.50L344.30 19.11Q344.30 17.03 343.41 16.03Q342.51 15.03 340.42 15.03L340.42 15.03Q337.57 15.03 336.29 17.23L336.29 17.23L336.29 34.50L329.79 34.50L329.79 0L336.29 0Z"></path></g></svg><svg id="slogan" viewBox="0 0 205.17578125 19.16015625" width="205" height="19.143741075678246" style="fill: rgb(255, 255, 255);" x="92" y="54.30032820719865" data-v-8d8ae3dd=""><rect x="0" y="0" width="100%" height="100%" fill="none" data-v-8d8ae3dd=""></rect><g data-v-8d8ae3dd=""><path xmlns="http://www.w3.org/2000/svg" d="M1.54 1.84L4.37 1.84L4.37 4.43L6.17 4.43L6.17 6.50L4.37 6.50L4.37 11.78Q4.37 12.36 4.59 12.62Q4.81 12.87 5.45 12.87L5.45 12.87Q5.92 12.87 6.28 12.80L6.28 12.80L6.28 14.94Q5.45 15.20 4.57 15.20L4.57 15.20Q1.60 15.20 1.54 12.20L1.54 12.20L1.54 6.50L0 6.50L0 4.43L1.54 4.43L1.54 1.84ZM14.15 15L14.07 13.93Q13.03 15.20 11.18 15.20L11.18 15.20Q9.48 15.20 8.59 14.22Q7.70 13.24 7.68 11.36L7.68 11.36L7.68 4.43L10.50 4.43L10.50 11.26Q10.50 12.91 12.00 12.91L12.00 12.91Q13.44 12.91 13.97 11.91L13.97 11.91L13.97 4.43L16.81 4.43L16.81 15L14.15 15ZM24.91 4.37L24.87 7.08Q24.30 7.00 23.86 7.00L23.86 7.00Q22.26 7.00 21.76 8.09L21.76 8.09L21.76 15L18.94 15L18.94 4.43L21.60 4.43L21.68 5.69Q22.53 4.24 24.03 4.24L24.03 4.24Q24.50 4.24 24.91 4.37L24.91 4.37ZM26.17 4.43L28.83 4.43L28.92 5.65Q30.05 4.24 31.95 4.24L31.95 4.24Q33.63 4.24 34.45 5.22Q35.27 6.21 35.29 8.17L35.29 8.17L35.29 15L32.47 15L32.47 8.24Q32.47 7.34 32.08 6.94Q31.69 6.53 30.78 6.53L30.78 6.53Q29.59 6.53 28.99 7.55L28.99 7.55L28.99 15L26.17 15L26.17 4.43ZM40.41 4.43L40.41 15L37.58 15L37.58 4.43L40.41 4.43ZM37.41 1.70L37.41 1.70Q37.41 1.06 37.84 0.65Q38.26 0.24 38.99 0.24L38.99 0.24Q39.72 0.24 40.15 0.65Q40.58 1.06 40.58 1.70L40.58 1.70Q40.58 2.34 40.14 2.75Q39.71 3.16 38.99 3.16Q38.28 3.16 37.85 2.75Q37.41 2.34 37.41 1.70ZM42.68 4.43L45.33 4.43L45.42 5.65Q46.55 4.24 48.46 4.24L48.46 4.24Q50.14 4.24 50.96 5.22Q51.78 6.21 51.80 8.17L51.80 8.17L51.80 15L48.97 15L48.97 8.24Q48.97 7.34 48.58 6.94Q48.19 6.53 47.29 6.53L47.29 6.53Q46.09 6.53 45.50 7.55L45.50 7.55L45.50 15L42.68 15L42.68 4.43ZM53.53 9.76L53.53 9.64Q53.53 7.21 54.68 5.72Q55.84 4.24 57.80 4.24L57.80 4.24Q59.54 4.24 60.51 5.43L60.51 5.43L60.63 4.43L63.18 4.43L63.18 14.65Q63.18 16.04 62.55 17.06Q61.92 18.09 60.78 18.62Q59.64 19.16 58.11 19.16L58.11 19.16Q56.94 19.16 55.84 18.70Q54.74 18.23 54.17 17.50L54.17 17.50L55.42 15.78Q56.47 16.96 57.98 16.96L57.98 16.96Q59.10 16.96 59.73 16.36Q60.35 15.76 60.35 14.66L60.35 14.66L60.35 14.09Q59.38 15.20 57.78 15.20L57.78 15.20Q55.88 15.20 54.70 13.71Q53.53 12.22 53.53 9.76L53.53 9.76ZM56.35 9.84L56.35 9.84Q56.35 11.28 56.92 12.09Q57.50 12.91 58.51 12.91L58.51 12.91Q59.79 12.91 60.35 11.94L60.35 11.94L60.35 7.50Q59.79 6.53 58.53 6.53L58.53 6.53Q57.51 6.53 56.93 7.36Q56.35 8.19 56.35 9.84ZM73.31 4.43L73.31 15L70.48 15L70.48 4.43L73.31 4.43ZM70.31 1.70L70.31 1.70Q70.31 1.06 70.74 0.65Q71.16 0.24 71.89 0.24L71.89 0.24Q72.62 0.24 73.05 0.65Q73.48 1.06 73.48 1.70L73.48 1.70Q73.48 2.34 73.04 2.75Q72.61 3.16 71.89 3.16Q71.18 3.16 70.75 2.75Q70.31 2.34 70.31 1.70ZM75.20 9.64L75.20 9.64Q75.20 7.17 76.30 5.70Q77.41 4.24 79.34 4.24L79.34 4.24Q80.88 4.24 81.88 5.39L81.88 5.39L81.88 0L84.72 0L84.72 15L82.17 15L82.03 13.88Q80.98 15.20 79.32 15.20L79.32 15.20Q77.45 15.20 76.32 13.73Q75.20 12.26 75.20 9.64ZM78.02 9.84L78.02 9.84Q78.02 11.33 78.54 12.12Q79.05 12.91 80.04 12.91L80.04 12.91Q81.35 12.91 81.88 11.81L81.88 11.81L81.88 7.64Q81.36 6.53 80.06 6.53L80.06 6.53Q78.02 6.53 78.02 9.84ZM91.77 15.20L91.77 15.20Q89.44 15.20 87.98 13.77Q86.52 12.34 86.52 9.97L86.52 9.97L86.52 9.70Q86.52 8.11 87.14 6.85Q87.75 5.60 88.88 4.92Q90.01 4.24 91.46 4.24L91.46 4.24Q93.62 4.24 94.87 5.61Q96.11 6.97 96.11 9.48L96.11 9.48L96.11 10.63L89.38 10.63Q89.52 11.67 90.21 12.29Q90.90 12.92 91.95 12.92L91.95 12.92Q93.58 12.92 94.50 11.74L94.50 11.74L95.89 13.29Q95.25 14.19 94.17 14.69Q93.09 15.20 91.77 15.20ZM91.45 6.52L91.45 6.52Q90.61 6.52 90.08 7.09Q89.56 7.66 89.41 8.71L89.41 8.71L93.34 8.71L93.34 8.49Q93.32 7.55 92.83 7.04Q92.34 6.52 91.45 6.52ZM106.69 15L103.84 15Q103.64 14.62 103.55 14.05L103.55 14.05Q102.53 15.20 100.89 15.20L100.89 15.20Q99.34 15.20 98.32 14.30Q97.29 13.40 97.29 12.03L97.29 12.03Q97.29 10.35 98.54 9.45Q99.79 8.55 102.14 8.54L102.14 8.54L103.44 8.54L103.44 7.94Q103.44 7.21 103.06 6.77Q102.69 6.33 101.88 6.33L101.88 6.33Q101.16 6.33 100.76 6.67Q100.35 7.01 100.35 7.61L100.35 7.61L97.53 7.61Q97.53 6.69 98.10 5.91Q98.66 5.13 99.70 4.68Q100.73 4.24 102.02 4.24L102.02 4.24Q103.97 4.24 105.12 5.22Q106.27 6.20 106.27 7.98L106.27 7.98L106.27 12.56Q106.28 14.06 106.69 14.83L106.69 14.83L106.69 15ZM101.50 13.04L101.50 13.04Q102.13 13.04 102.66 12.76Q103.18 12.48 103.44 12.01L103.44 12.01L103.44 10.20L102.38 10.20Q100.26 10.20 100.13 11.66L100.13 11.66L100.12 11.83Q100.12 12.35 100.49 12.70Q100.86 13.04 101.50 13.04ZM114.16 12.08L114.16 12.08Q114.16 11.56 113.65 11.26Q113.13 10.97 112.00 10.73L112.00 10.73Q108.23 9.94 108.23 7.53L108.23 7.53Q108.23 6.12 109.40 5.18Q110.57 4.24 112.45 4.24L112.45 4.24Q114.46 4.24 115.67 5.19Q116.88 6.13 116.88 7.65L116.88 7.65L114.05 7.65Q114.05 7.04 113.66 6.65Q113.27 6.25 112.44 6.25L112.44 6.25Q111.73 6.25 111.34 6.57Q110.95 6.89 110.95 7.39L110.95 7.39Q110.95 7.86 111.39 8.15Q111.84 8.44 112.89 8.65Q113.95 8.86 114.67 9.12L114.67 9.12Q116.90 9.94 116.90 11.96L116.90 11.96Q116.90 13.41 115.66 14.30Q114.42 15.20 112.46 15.20L112.46 15.20Q111.13 15.20 110.10 14.72Q109.07 14.25 108.49 13.42Q107.90 12.60 107.90 11.64L107.90 11.64L110.58 11.64Q110.62 12.39 111.13 12.79Q111.65 13.19 112.52 13.19L112.52 13.19Q113.33 13.19 113.75 12.89Q114.16 12.58 114.16 12.08ZM126.68 4.43L126.68 15L123.85 15L123.85 4.43L126.68 4.43ZM123.68 1.70L123.68 1.70Q123.68 1.06 124.11 0.65Q124.53 0.24 125.26 0.24L125.26 0.24Q125.99 0.24 126.42 0.65Q126.85 1.06 126.85 1.70L126.85 1.70Q126.85 2.34 126.41 2.75Q125.98 3.16 125.26 3.16Q124.55 3.16 124.12 2.75Q123.68 2.34 123.68 1.70ZM128.95 4.43L131.60 4.43L131.69 5.65Q132.82 4.24 134.73 4.24L134.73 4.24Q136.41 4.24 137.23 5.22Q138.05 6.21 138.07 8.17L138.07 8.17L138.07 15L135.24 15L135.24 8.24Q135.24 7.34 134.85 6.94Q134.46 6.53 133.55 6.53L133.55 6.53Q132.36 6.53 131.77 7.55L131.77 7.55L131.77 15L128.95 15L128.95 4.43ZM140.76 1.84L143.58 1.84L143.58 4.43L145.39 4.43L145.39 6.50L143.58 6.50L143.58 11.78Q143.58 12.36 143.81 12.62Q144.03 12.87 144.67 12.87L144.67 12.87Q145.14 12.87 145.50 12.80L145.50 12.80L145.50 14.94Q144.67 15.20 143.79 15.20L143.79 15.20Q140.82 15.20 140.76 12.20L140.76 12.20L140.76 6.50L139.22 6.50L139.22 4.43L140.76 4.43L140.76 1.84ZM146.23 9.75L146.23 9.62Q146.23 8.05 146.84 6.82Q147.44 5.59 148.58 4.91Q149.72 4.24 151.22 4.24L151.22 4.24Q153.36 4.24 154.71 5.55Q156.06 6.86 156.22 9.10L156.22 9.10L156.24 9.82Q156.24 12.26 154.88 13.73Q153.53 15.20 151.24 15.20Q148.96 15.20 147.59 13.73Q146.23 12.27 146.23 9.75L146.23 9.75ZM149.05 9.82L149.05 9.82Q149.05 11.33 149.62 12.12Q150.19 12.92 151.24 12.92L151.24 12.92Q152.27 12.92 152.84 12.13Q153.42 11.35 153.42 9.62L153.42 9.62Q153.42 8.14 152.84 7.33Q152.27 6.52 151.22 6.52L151.22 6.52Q150.19 6.52 149.62 7.33Q149.05 8.13 149.05 9.82ZM167.35 12.92L167.35 12.92Q168.13 12.92 168.62 12.49Q169.11 12.06 169.13 11.35L169.13 11.35L171.78 11.35Q171.77 12.42 171.19 13.32Q170.62 14.21 169.61 14.70Q168.61 15.20 167.40 15.20L167.40 15.20Q165.14 15.20 163.83 13.75Q162.52 12.31 162.52 9.78L162.52 9.78L162.52 9.59Q162.52 7.15 163.82 5.69Q165.12 4.24 167.38 4.24L167.38 4.24Q169.37 4.24 170.56 5.37Q171.76 6.49 171.78 8.37L171.78 8.37L169.13 8.37Q169.11 7.55 168.62 7.04Q168.13 6.52 167.33 6.52L167.33 6.52Q166.35 6.52 165.84 7.24Q165.34 7.96 165.34 9.57L165.34 9.57L165.34 9.86Q165.34 11.49 165.84 12.21Q166.34 12.92 167.35 12.92ZM172.95 9.75L172.95 9.62Q172.95 8.05 173.55 6.82Q174.16 5.59 175.30 4.91Q176.44 4.24 177.94 4.24L177.94 4.24Q180.08 4.24 181.43 5.55Q182.78 6.86 182.94 9.10L182.94 9.10L182.96 9.82Q182.96 12.26 181.60 13.73Q180.24 15.20 177.96 15.20Q175.67 15.20 174.31 13.73Q172.95 12.27 172.95 9.75L172.95 9.75ZM175.77 9.82L175.77 9.82Q175.77 11.33 176.34 12.12Q176.90 12.92 177.96 12.92L177.96 12.92Q178.98 12.92 179.56 12.13Q180.14 11.35 180.14 9.62L180.14 9.62Q180.14 8.14 179.56 7.33Q178.98 6.52 177.94 6.52L177.94 6.52Q176.90 6.52 176.34 7.33Q175.77 8.13 175.77 9.82ZM184.26 9.64L184.26 9.64Q184.26 7.17 185.37 5.70Q186.47 4.24 188.40 4.24L188.40 4.24Q189.94 4.24 190.95 5.39L190.95 5.39L190.95 0L193.78 0L193.78 15L191.23 15L191.09 13.88Q190.04 15.20 188.38 15.20L188.38 15.20Q186.51 15.20 185.39 13.73Q184.26 12.26 184.26 9.64ZM187.08 9.84L187.08 9.84Q187.08 11.33 187.60 12.12Q188.12 12.91 189.10 12.91L189.10 12.91Q190.41 12.91 190.95 11.81L190.95 11.81L190.95 7.64Q190.42 6.53 189.12 6.53L189.12 6.53Q187.08 6.53 187.08 9.84ZM200.83 15.20L200.83 15.20Q198.51 15.20 197.05 13.77Q195.59 12.34 195.59 9.97L195.59 9.97L195.59 9.70Q195.59 8.11 196.20 6.85Q196.82 5.60 197.94 4.92Q199.07 4.24 200.52 4.24L200.52 4.24Q202.69 4.24 203.93 5.61Q205.18 6.97 205.18 9.48L205.18 9.48L205.18 10.63L198.45 10.63Q198.58 11.67 199.27 12.29Q199.96 12.92 201.02 12.92L201.02 12.92Q202.65 12.92 203.56 11.74L203.56 11.74L204.95 13.29Q204.32 14.19 203.23 14.69Q202.15 15.20 200.83 15.20ZM200.51 6.52L200.51 6.52Q199.67 6.52 199.15 7.09Q198.62 7.66 198.48 8.71L198.48 8.71L202.40 8.71L202.40 8.49Q202.38 7.55 201.89 7.04Q201.41 6.52 200.51 6.52Z"></path></g></svg></svg>